<svg width="25" height="18" viewBox="0 0 25 18" fill="none" xmlns="http://www.w3.org/2000/svg">
<path d="M17.3223 14.1148C17.1798 14.1148 17.0373 14.0623 16.9248 13.9498C16.7073 13.7323 16.7073 13.3723 16.9248 13.1548L21.0798 8.99984L16.9248 4.84484C16.7073 4.62734 16.7073 4.26734 16.9248 4.04984C17.1423 3.83234 17.5023 3.83234 17.7198 4.04984L22.2723 8.60234C22.4898 8.81984 22.4898 9.17984 22.2723 9.39734L17.7198 13.9498C17.6073 14.0623 17.4648 14.1148 17.3223 14.1148Z" fill="white"/>
<path d="M21.7475 9.5625H0.875C0.5675 9.5625 0.3125 9.3075 0.3125 9C0.3125 8.6925 0.5675 8.4375 0.875 8.4375H21.7475C22.055 8.4375 22.31 8.6925 22.31 9C22.31 9.3075 22.055 9.5625 21.7475 9.5625Z" fill="white"/>
</svg>
