<svg width="43" height="44" viewBox="0 0 43 44" fill="none" xmlns="http://www.w3.org/2000/svg">
<g filter="url(#filter0_d_48_7)">
<path d="M21.4998 8.66699C14.1532 8.66699 8.1665 14.6537 8.1665 22.0003C8.1665 29.347 14.1532 35.3337 21.4998 35.3337C28.8465 35.3337 34.8332 29.347 34.8332 22.0003C34.8332 14.6537 28.8465 8.66699 21.4998 8.66699ZM26.9132 24.387C26.7132 24.587 26.4598 24.6803 26.2065 24.6803C25.9532 24.6803 25.6998 24.587 25.4998 24.387L21.4998 20.387L17.4998 24.387C17.1132 24.7737 16.4732 24.7737 16.0865 24.387C15.6998 24.0003 15.6998 23.3603 16.0865 22.9737L20.7932 18.267C21.1798 17.8803 21.8198 17.8803 22.2065 18.267L26.9132 22.9737C27.2998 23.3737 27.2998 24.0003 26.9132 24.387Z" fill="white"/>
</g>
<defs>
<filter id="filter0_d_48_7" x="0.166504" y="0.666992" width="42.6667" height="42.6667" filterUnits="userSpaceOnUse" color-interpolation-filters="sRGB">
<feFlood flood-opacity="0" result="BackgroundImageFix"/>
<feColorMatrix in="SourceAlpha" type="matrix" values="0 0 0 0 0 0 0 0 0 0 0 0 0 0 0 0 0 0 127 0" result="hardAlpha"/>
<feOffset/>
<feGaussianBlur stdDeviation="4"/>
<feComposite in2="hardAlpha" operator="out"/>
<feColorMatrix type="matrix" values="0 0 0 0 0 0 0 0 0 0 0 0 0 0 0 0 0 0 0.12 0"/>
<feBlend mode="normal" in2="BackgroundImageFix" result="effect1_dropShadow_48_7"/>
<feBlend mode="normal" in="SourceGraphic" in2="effect1_dropShadow_48_7" result="shape"/>
</filter>
</defs>
</svg>
