<svg width="48" height="38" viewBox="0 0 48 38" fill="none" xmlns="http://www.w3.org/2000/svg">
<path fill-rule="evenodd" clip-rule="evenodd" d="M0.685594 0.0967881C0.52125 0.144413 0.299813 0.293944 0.193407 0.429132L0 0.675038V18.7435C0 36.8039 9.35867e-05 36.812 0.191719 37.0558C0.297281 37.1898 0.539812 37.3429 0.730781 37.396C1.21425 37.5302 46.7858 37.5302 47.2692 37.396C47.4602 37.3429 47.7027 37.1898 47.8083 37.0558C47.9999 36.812 48 36.8039 48 18.7435C48 0.683006 47.9999 0.674944 47.8083 0.431194C47.7027 0.297132 47.4602 0.144038 47.2692 0.0909756C46.8189 -0.0340869 1.11825 -0.0283682 0.685594 0.0967881ZM46.1232 2.73566L46.1214 3.60285L45.4904 4.05763C44.1698 5.00948 41.4631 6.14535 38.8594 6.84032C35.8147 7.65304 32.8423 8.10688 28.097 8.48357C27.2068 8.55416 26.9214 8.74729 26.8431 9.33191C26.7982 9.66651 26.8286 9.75848 27.0762 10.0349C27.3607 10.3523 27.3624 10.3529 28.1415 10.3319C30.0365 10.2808 33.6496 9.86048 35.8911 9.43035L37.0477 9.20835L37.1282 9.4056C37.1724 9.51407 37.3642 10.0036 37.5543 10.4935C38.5448 13.0454 40.0833 15.4134 42.0169 17.3618L43.0182 18.3708L42.6336 19.0024C40.6899 22.1947 39.3666 28.1548 39.0691 35.056L39.0469 35.5716H24H8.95312L8.8845 34.2591C8.54353 27.7396 7.23281 22.0679 5.35406 18.9822L4.95713 18.3302L5.49675 17.8572C6.24731 17.1992 7.65197 15.5337 8.38547 14.4319C9.14963 13.284 9.99825 11.664 10.4486 10.4935C10.6372 10.0036 10.8276 9.51407 10.8718 9.4056L10.9523 9.20835L12.1089 9.43035C14.3504 9.86048 17.9635 10.2808 19.8585 10.3319C20.6376 10.3529 20.6393 10.3523 20.9238 10.0349C21.1714 9.75848 21.2018 9.66651 21.1569 9.33191C21.0786 8.74729 20.7932 8.55416 19.903 8.48357C16.2741 8.19548 14.4014 7.9596 12 7.48823C7.71909 6.64794 4.36828 5.40763 2.27709 3.88944L1.88231 3.60285L1.87866 2.73566L1.875 1.86848H24H46.125L46.1232 2.73566ZM3.65625 6.85644C4.82719 7.41266 6.41419 8.0106 7.71422 8.38551C8.34403 8.5671 8.91206 8.73463 8.97638 8.75779C9.12862 8.81263 8.88206 9.49241 8.14988 11.0357C7.11197 13.2237 5.96869 14.7648 3.98409 16.6515C2.75709 17.8181 2.72053 17.8642 2.71959 18.2437C2.71884 18.5786 2.78625 18.7128 3.19003 19.1812C4.43766 20.6284 5.66831 24.1122 6.32381 28.0521C6.68887 30.2465 7.03125 33.6199 7.03125 35.0227V35.6185H4.45312H1.875V20.7572V5.89598L2.36719 6.18688C2.63784 6.34701 3.21797 6.64823 3.65625 6.85644ZM46.125 20.7591V35.6185H43.5469H40.9688V35.0227C40.9688 34.695 41.0113 33.883 41.0632 33.218C41.5834 26.5675 42.9213 21.5313 44.782 19.2201C45.196 18.7058 45.2789 18.5403 45.2792 18.2278C45.2795 17.8682 45.2278 17.8037 44.0159 16.6515C42.0313 14.7648 40.888 13.2237 39.8501 11.0357C39.1179 9.49241 38.8714 8.81263 39.0236 8.75779C39.0879 8.73463 39.668 8.56382 40.3125 8.37819C41.9066 7.91919 44.1377 7.02285 45.2004 6.41451C45.6832 6.13823 46.0886 5.90938 46.1016 5.90591C46.1145 5.90254 46.125 12.5864 46.125 20.7591ZM23.5078 8.71973C23.2925 8.84516 23.0625 9.29798 23.0625 9.59676C23.0625 9.72735 23.1848 9.9711 23.3342 10.1383C23.559 10.3899 23.6737 10.4424 24 10.4424C24.3263 10.4424 24.441 10.3899 24.6658 10.1383C24.8152 9.9711 24.9375 9.72735 24.9375 9.59676C24.9375 9.28588 24.7013 8.83673 24.4739 8.71504C24.2452 8.5926 23.7218 8.59513 23.5078 8.71973ZM23.5373 14.564C23.3883 14.6466 22.8976 15.4325 22.1221 16.8305C21.0771 18.7145 20.9024 18.9784 20.6628 19.0355C20.5131 19.0711 19.4436 19.2812 18.2861 19.5023C16.4683 19.8495 16.1445 19.9374 15.9096 20.1474C15.7041 20.331 15.6375 20.4736 15.6375 20.7304C15.6375 20.9174 15.6734 21.1343 15.7172 21.2124C15.7611 21.2905 16.5256 22.1359 17.4163 23.091L19.0357 24.8278L18.7522 27.0697C18.3993 29.8612 18.3993 29.8447 18.7428 30.1882C19.1853 30.6307 19.4199 30.5756 21.7607 29.4794C22.9149 28.9388 23.9249 28.4958 24.005 28.495C24.0851 28.4941 25.0913 28.9364 26.2411 29.4779C28.576 30.5774 28.8124 30.633 29.2572 30.1882C29.6007 29.8447 29.6008 29.8617 29.2471 27.0643L28.9629 24.8168L30.2046 23.4911C32.5104 21.0291 32.3438 21.2402 32.3438 20.781C32.3438 20.0448 32.2141 19.9847 29.4642 19.4458L27.0681 18.9762L25.8795 16.8333C24.6747 14.6614 24.4992 14.4376 24 14.4376C23.8711 14.4376 23.6629 14.4945 23.5373 14.564ZM24.8998 18.9424C25.3559 19.7737 25.8169 20.5114 25.9242 20.5817C26.0316 20.6521 26.8713 20.8561 27.7901 21.0351C28.7091 21.2142 29.4824 21.3822 29.5088 21.4084C29.5351 21.4348 29.0216 22.0237 28.3677 22.7172C27.7099 23.4148 27.1462 24.0967 27.1057 24.2436C27.0615 24.4038 27.1152 25.1779 27.2413 26.1966C27.3562 27.1247 27.4379 27.897 27.4229 27.9128C27.408 27.9285 26.7055 27.6157 25.862 27.2175C24.8548 26.7422 24.2154 26.494 24 26.4944C23.7863 26.495 23.1378 26.7484 22.1408 27.221C21.2986 27.6202 20.5961 27.9327 20.5797 27.9154C20.5633 27.8982 20.6438 27.1247 20.7587 26.1966C20.8848 25.1779 20.9385 24.4038 20.8943 24.2436C20.8538 24.0967 20.2901 23.4148 19.6323 22.7172C18.9784 22.0237 18.4641 21.4356 18.4894 21.4104C18.5147 21.3851 19.2844 21.2194 20.1999 21.0422C21.1155 20.8651 21.9561 20.6602 22.0678 20.587C22.1796 20.5138 22.6441 19.7737 23.1002 18.9424C23.5563 18.1111 23.9612 17.431 24 17.431C24.0388 17.431 24.4437 18.1111 24.8998 18.9424Z" fill="#79C32B"/>
</svg>
