<svg width="48" height="48" viewBox="0 0 48 48" fill="none" xmlns="http://www.w3.org/2000/svg">
<path fill-rule="evenodd" clip-rule="evenodd" d="M9.1884 0.156429C7.5369 0.556491 6.27642 2.01741 6.03525 3.8108C5.97868 4.23168 5.94749 5.52112 5.96425 6.74559L5.99423 8.92966L6.30012 9.20315C6.69012 9.55174 7.14034 9.56937 7.51095 9.2505L7.77376 9.02445L7.82387 6.36747C7.87894 3.45321 7.89646 3.35439 8.47902 2.69022C8.64798 2.49754 8.95884 2.2475 9.16976 2.13452C9.53204 1.94044 9.7025 1.92647 12.2441 1.88222L14.9349 1.83534L15.1799 1.58988C15.6185 1.15044 15.451 0.313566 14.8809 0.0966123C14.4953 -0.0501177 9.83933 -0.00117641 9.1884 0.156429ZM38.9259 0.137959C38.4236 0.416606 38.2972 1.13432 38.6732 1.57226L38.8991 1.83534L41.6 1.88222C44.6292 1.93481 44.7064 1.95057 45.3899 2.65562C45.9814 3.26579 46.0338 3.56281 46.0338 6.31018C46.0338 8.8825 46.0747 9.15383 46.4969 9.37998C46.7283 9.50392 47.2125 9.50392 47.4438 9.37998C47.8663 9.15365 47.907 8.88334 47.907 6.29808C47.907 4.84888 47.8643 3.65892 47.8016 3.36349C47.4716 1.80749 46.2558 0.563616 44.6576 0.146959C43.9263 -0.0437427 39.2666 -0.0510551 38.9259 0.137959ZM10.2338 4.21846L9.92794 4.49204L9.90359 17.5748L9.87914 30.6576L6.15719 30.6851C2.53209 30.7118 2.42345 30.718 1.98643 30.9218C1.31817 31.2335 0.585279 31.9755 0.269178 32.6606L0 33.244V39.3382V45.4324L0.212514 45.8937C0.664141 46.8741 1.47121 47.5717 2.49416 47.8659C2.95946 47.9997 3.70893 48.0144 8.86518 47.9907L14.7088 47.9639L15.327 47.6591C16.0598 47.2979 16.6354 46.7093 16.9843 45.9645L17.2334 45.4324L17.2609 41.7534L17.2884 38.0744L30.3576 38.05L43.4267 38.0256L43.7 37.7194L43.9733 37.4132V31.1813V24.9495L43.7018 24.6454C43.4772 24.3938 43.3626 24.3413 43.0367 24.3413C42.7107 24.3413 42.5961 24.3938 42.3715 24.6454L42.1001 24.9495V30.5734V36.1973H29.6982H17.2963L17.2637 34.6738C17.2329 33.2418 17.2157 33.119 16.9772 32.631C16.6536 31.9689 15.9789 31.293 15.3165 30.9674C14.8283 30.7274 14.7098 30.7107 13.2763 30.681L11.7543 30.6495V18.2348V5.82002H26.9272H42.1001V11.4048C42.1001 15.3333 42.1311 17.0502 42.2047 17.1943C42.4469 17.6684 43.0583 17.8727 43.5101 17.6306C43.9763 17.3809 43.9733 17.4244 43.9733 10.8451C43.9733 6.28337 43.9445 4.64055 43.8613 4.45791C43.6134 3.91309 44.6649 3.94487 26.8864 3.94487H10.5397L10.2338 4.21846ZM24.9186 8.77468C23.9229 8.93744 23.5933 9.03795 22.8728 9.39882C22.3601 9.65562 21.5906 10.3177 21.2995 10.7525C21.2208 10.8701 20.941 11.0159 20.6092 11.1123C19.0485 11.5658 18.0048 12.538 17.0594 14.4187C16.5399 15.452 16.2414 16.5817 16.1851 17.7272C16.1396 18.6515 16.1502 18.7315 16.3595 19.0375C16.6458 19.4564 17.125 19.7777 17.5697 19.8489L17.9208 19.9052L17.9574 22.543C17.9912 24.9891 18.0096 25.2286 18.2098 25.8372C18.6567 27.1961 19.0771 27.874 20.5593 29.6271C21.9628 31.2872 22.9103 31.9759 24.5877 32.5555C25.4391 32.8497 25.5349 32.8624 26.9272 32.8656C28.5587 32.8693 29.1218 32.7602 30.27 32.2173C31.5685 31.6036 32.3806 30.9127 33.8581 29.1655C34.92 27.9099 35.4922 26.886 35.8756 25.5559C36.006 25.1038 36.0462 24.4858 36.0804 22.4073L36.123 19.8212L36.4423 19.7057C37.1083 19.4646 37.5967 18.8495 37.7372 18.0749C37.8658 17.3659 37.3822 15.4981 36.7369 14.2113C35.82 12.3827 34.0823 10.7254 32.1991 9.88326C29.9412 8.8735 27.0276 8.42994 24.9186 8.77468ZM28.0945 10.6497C29.3737 10.8428 30.2852 11.1087 31.2939 11.583C33.7983 12.7607 35.2467 14.5455 35.7736 17.1032C35.8463 17.4562 35.8831 17.8042 35.8553 17.8767C35.7793 18.0748 28.3864 18.0661 27.4423 17.8668C25.9698 17.5559 24.6182 16.5149 23.9077 15.1443C23.4775 14.3145 23.2699 14.1217 22.8062 14.1217C22.3512 14.1217 22.1023 14.3406 21.812 14.9961C21.3211 16.1041 20.4144 17.0936 19.4344 17.5902C19.1353 17.7418 18.2867 18.0046 18.0877 18.0073C17.9512 18.0092 18.1202 16.8844 18.3692 16.1333C18.4974 15.7466 18.7737 15.1396 18.9832 14.7845C19.7206 13.5349 20.2997 13.092 21.5757 12.8015C22.2202 12.6547 22.2503 12.6348 22.7118 12.0468C23.3568 11.2253 23.7998 10.9234 24.6167 10.7488C25.866 10.4819 26.8046 10.4552 28.0945 10.6497ZM25.3369 19.0621C26.8555 19.8086 26.8968 19.8146 30.7907 19.8587L34.2326 19.8978V22.052C34.2326 24.487 34.1396 25.1211 33.6213 26.2145C33.3299 26.8299 32.2344 28.2562 31.2947 29.2443C30.5681 30.0083 29.4395 30.655 28.4081 30.8984C27.643 31.0789 26.2745 31.079 25.5654 30.8986C24.7518 30.6916 23.7406 30.1671 23.1729 29.6575C22.3267 28.8981 20.8605 27.1029 20.4649 26.3421C19.8763 25.2098 19.812 24.7812 19.8104 21.9748L19.809 19.5188L20.4508 19.1812C21.1807 18.7973 21.9641 18.1333 22.4654 17.474L22.8076 17.024L23.6283 17.8249C24.2945 18.4749 24.6162 18.7079 25.3369 19.0621ZM42.5787 20.202C42.3012 20.3559 42.1077 20.6932 42.1033 21.0306C42.0987 21.3987 42.5343 21.8461 42.9639 21.9145C43.2733 21.9637 43.35 21.9327 43.6429 21.6394C43.8484 21.4337 43.9733 21.2182 43.9733 21.0693C43.9733 20.3152 43.2195 19.8464 42.5787 20.202ZM26.5388 21.6415C26.2137 21.9966 25.2384 24.4291 25.24 24.8808C25.2417 25.3393 25.4416 25.72 25.8236 25.9922C26.0823 26.1767 26.2691 26.2144 27.0746 26.2442C28.1907 26.2855 28.5472 26.1585 28.7625 25.6426C28.9264 25.2502 28.8594 24.9374 28.5442 24.6218C28.3549 24.4323 28.2138 24.3839 27.851 24.3839C27.6005 24.3839 27.3955 24.3422 27.3955 24.2913C27.3955 24.2403 27.5391 23.8501 27.7146 23.424C28.1671 22.3253 28.1829 22.01 27.8042 21.6308C27.4519 21.2782 26.8671 21.2831 26.5388 21.6415ZM34.6775 32.1733C34.4624 32.2987 34.2326 32.7516 34.2326 33.0504C34.2326 33.181 34.3555 33.4257 34.5058 33.5941L34.7789 33.9003L36.777 33.9303C39.0291 33.9641 39.3973 33.9057 39.6175 33.4794C39.842 33.0449 39.7967 32.6584 39.4848 32.3461L39.211 32.072L37.0262 32.0748C35.7173 32.0766 34.7757 32.116 34.6775 32.1733ZM14.6587 32.7518C14.829 32.8678 15.0565 33.0818 15.1643 33.2274C15.3581 33.4893 15.3602 33.5536 15.3602 39.3216V45.1511L15.1353 45.4668C15.0116 45.6404 14.7376 45.861 14.5265 45.957C14.1662 46.1208 13.8029 46.1316 8.60799 46.1335L3.07345 46.1356L2.66556 45.9197C2.38552 45.7714 2.18948 45.5746 2.03991 45.2916L1.82215 44.8793L1.84772 39.1949L1.8732 33.5105L2.14284 33.1567C2.62238 32.5274 2.39741 32.5485 8.67308 32.5445L14.3491 32.5408L14.6587 32.7518ZM46.3434 32.7669L46.0806 32.993L46.0338 35.6968C45.9897 38.2417 45.9751 38.4227 45.7845 38.7757C45.5217 39.2621 45.052 39.7081 44.5821 39.9175C44.2614 40.0604 43.8249 40.0914 41.5532 40.1333L38.899 40.182L38.6732 40.4451C38.3546 40.8161 38.3722 41.2668 38.7205 41.6572L38.9937 41.9634L41.312 41.9916C42.6764 42.0082 43.9018 41.9776 44.29 41.9174C45.9664 41.657 47.3354 40.4175 47.7634 38.7724C47.8755 38.3417 47.907 37.6575 47.907 35.6548V33.0889L47.6332 32.8149C47.274 32.4553 46.7291 32.435 46.3434 32.7669ZM11.9693 35.9817C11.8556 36.0037 10.7239 37.0563 9.4543 38.3207L7.14587 40.6197L6.2783 39.768C5.46458 38.9693 5.38637 38.9163 5.01913 38.9163C4.36455 38.9163 3.92191 39.5408 4.16318 40.1239C4.22387 40.2704 4.83266 40.9446 5.51628 41.6222C6.72983 42.8251 6.7687 42.8541 7.169 42.8541H7.57895L10.2783 40.1586C13.2172 37.2239 13.3274 37.0763 13.0227 36.4865C12.9314 36.3096 12.7326 36.1268 12.5472 36.0493C12.372 35.9761 12.2167 35.9218 12.2022 35.9288C12.1877 35.9358 12.0829 35.9597 11.9693 35.9817Z" fill="#79C32B"/>
</svg>
