<svg width="49" height="48" viewBox="0 0 49 48" fill="none" xmlns="http://www.w3.org/2000/svg">
<path fill-rule="evenodd" clip-rule="evenodd" d="M14.9251 0.158579C13.3414 0.584423 12.0992 1.84434 11.6814 3.4484C11.5625 3.90498 11.5416 5.25138 11.5416 12.4719C11.5416 21.7684 11.5273 21.5094 12.099 22.5649L12.3669 23.0594H8.17928C4.72137 23.0594 3.89573 23.0845 3.44093 23.2029C1.82488 23.6239 0.580137 24.8726 0.156916 26.4974C-0.0523053 27.3005 -0.0523053 43.7413 0.156916 44.5444C0.580137 46.1692 1.82488 47.4179 3.44093 47.8389C4.25701 48.0514 20.6872 48.0548 21.5021 47.8425C22.2791 47.6402 22.9339 47.2798 23.5034 46.7412L24.0031 46.2687L24.5027 46.7412C25.0722 47.2798 25.7271 47.6402 26.5041 47.8425C27.3189 48.0548 43.7491 48.0514 44.5652 47.8389C46.1813 47.4179 47.426 46.1692 47.8492 44.5444C48.0584 43.7413 48.0584 27.3005 47.8492 26.4974C47.426 24.8726 46.1813 23.6239 44.5652 23.2029C44.1104 23.0845 43.2848 23.0594 39.8269 23.0594H35.6392L35.9071 22.5649C36.396 21.6624 36.4645 21.1839 36.4645 18.6736V16.3884L36.146 16.0698C35.7137 15.6376 35.3414 15.6376 34.9092 16.0698L34.5906 16.3884V18.5825C34.5906 21.2652 34.5323 21.5372 33.8003 22.2691C32.9646 23.1049 33.5278 23.0594 24.0031 23.0594C14.4783 23.0594 15.0415 23.1049 14.2058 22.2691C13.3701 21.4335 13.4155 21.9967 13.4155 12.4719C13.4155 2.94713 13.3701 3.51033 14.2058 2.67467C15.0415 1.83891 14.4783 1.88435 24.0031 1.88435C33.5278 1.88435 32.9646 1.83891 33.8003 2.67467C34.5318 3.40615 34.5906 3.67983 34.5906 6.35042V8.5337L34.8621 8.83756C35.0868 9.08903 35.2015 9.1415 35.5276 9.1415C35.8536 9.1415 35.9683 9.08903 36.193 8.83756L36.4645 8.5337V6.25935C36.4645 4.51943 36.4308 3.8556 36.3211 3.43425C35.9001 1.8182 34.6513 0.573461 33.0266 0.15024C32.2379 -0.0552333 15.6916 -0.0475504 14.9251 0.158579ZM16.2463 4.27423C15.6458 4.53508 15.6642 4.27685 15.6642 12.4719C15.6642 20.707 15.6426 20.4127 16.2669 20.6736C16.7586 20.8791 31.2476 20.8791 31.7393 20.6736C32.3636 20.4127 32.3419 20.707 32.3419 12.4719C32.3419 4.23675 32.3636 4.53105 31.7393 4.2702C31.2548 4.06773 16.7128 4.07147 16.2463 4.27423ZM30.4212 12.4719V18.89H24.0031H17.585L17.5607 12.5656C17.5474 9.08716 17.5567 6.18814 17.5814 6.1234C17.6171 6.03008 18.9556 6.01059 24.0238 6.0297L30.4212 6.05378V12.4719ZM23.4372 8.20511C23.3064 8.27632 23.1483 8.43279 23.0858 8.55272C22.7324 9.23211 20.349 15.7163 20.349 15.9987C20.349 16.4537 20.7703 16.8756 21.2246 16.8756C21.7081 16.8756 22.0475 16.5403 22.3063 15.807L22.5246 15.1891H24.0031H25.4816L25.6998 15.807C25.9587 16.5403 26.298 16.8756 26.7815 16.8756C27.2369 16.8756 27.6572 16.4537 27.6572 15.9967C27.6572 15.7985 27.1137 14.2259 26.3029 12.0777C24.8128 8.12997 24.7766 8.06523 24.0681 8.07197C23.8519 8.07403 23.568 8.134 23.4372 8.20511ZM24.4059 12.351C24.5921 12.8515 24.7304 13.2749 24.7132 13.2921C24.6959 13.3093 24.3652 13.311 23.9781 13.2959L23.2742 13.2683L23.6153 12.3555C23.8027 11.8534 23.9811 11.4424 24.0117 11.442C24.0422 11.4415 24.2196 11.8507 24.4059 12.351ZM34.9092 11.8535C34.5587 12.204 34.5066 12.506 34.7241 12.9268C34.8628 13.195 35.2192 13.4088 35.5276 13.4088C36.0023 13.4088 36.4645 12.9511 36.4645 12.481C36.4645 12.1724 36.2777 11.8568 35.997 11.6909C35.584 11.447 35.2686 11.4941 34.9092 11.8535ZM21.2827 25.0817C21.6543 25.1919 21.9084 25.3563 22.2758 25.7237C23.1116 26.5593 23.0661 25.9961 23.0661 35.5209C23.0661 45.0457 23.1116 44.4825 22.2758 45.3181C21.4401 46.1539 22.0033 46.1084 12.4786 46.1084C2.95381 46.1084 3.51701 46.1539 2.68134 45.3181C1.84558 44.4825 1.89103 45.0457 1.89103 35.5209C1.89103 25.9945 1.8454 26.5596 2.68256 25.7224C3.50483 24.9002 2.9167 24.9473 12.4381 24.9399C19.7898 24.9341 20.8429 24.951 21.2827 25.0817ZM44.3317 25.0817C44.7033 25.1919 44.9574 25.3563 45.3248 25.7237C46.1606 26.5593 46.1151 25.9961 46.1151 35.5209C46.1151 45.0457 46.1606 44.4825 45.3248 45.3181C44.4891 46.1539 45.0523 46.1084 35.5276 46.1084C26.0028 46.1084 26.566 46.1539 25.7303 45.3181C24.8946 44.4825 24.94 45.0457 24.94 35.5209C24.94 25.9945 24.8944 26.5596 25.7316 25.7224C26.5538 24.9002 25.9657 24.9473 35.4871 24.9399C42.8388 24.9341 43.8919 24.951 44.3317 25.0817ZM4.72184 27.3232C4.12134 27.5841 4.13971 27.3259 4.13971 35.5209C4.13971 43.756 4.11806 43.4617 4.74235 43.7226C5.23407 43.9281 19.7231 43.9281 20.2148 43.7226C20.8391 43.4617 20.8174 43.756 20.8174 35.5209C20.8174 27.2857 20.8391 27.58 20.2148 27.3192C19.7303 27.1167 5.18834 27.1205 4.72184 27.3232ZM27.7708 27.3232C27.1703 27.5841 27.1887 27.3259 27.1887 35.5209C27.1887 43.756 27.1671 43.4617 27.7913 43.7226C28.2831 43.9281 42.7721 43.9281 43.2638 43.7226C43.8881 43.4617 43.8664 43.756 43.8664 35.5209C43.8664 27.2857 43.8881 27.58 43.2638 27.3192C42.7793 27.1167 28.2373 27.1205 27.7708 27.3232ZM18.8967 35.5209V41.939H12.4786H6.06046L6.03619 35.6146C6.02289 32.1362 6.03216 29.2371 6.0569 29.1724C6.0926 29.0791 7.43112 29.0596 12.4993 29.0787L18.8967 29.1028V35.5209ZM41.9457 35.5209V41.939H35.5276H29.1095L29.0852 35.6146C29.0719 32.1362 29.0812 29.2371 29.1059 29.1724C29.1416 29.0791 30.4801 29.0596 35.5483 29.0787L41.9457 29.1028V35.5209ZM9.83169 31.2184C9.40472 31.4671 9.38663 31.6431 9.38701 35.5396C9.38729 39.0349 9.39666 39.2372 9.5715 39.5238C9.67278 39.6899 9.85792 39.8516 9.9831 39.883C10.1082 39.9143 10.9632 39.926 11.8833 39.9088C13.5403 39.878 13.5608 39.8751 14.0641 39.5966C14.6251 39.2862 15.2076 38.6208 15.3956 38.0754C15.4624 37.8814 15.5178 37.4487 15.5185 37.1137C15.52 36.434 15.2311 35.6823 14.7873 35.2116C14.5475 34.9572 14.5445 34.9403 14.6907 34.6577C14.7736 34.4974 14.8633 34.1259 14.8899 33.8321C14.9839 32.7953 14.4389 31.8323 13.4906 31.3597C13.0269 31.1287 12.933 31.1173 11.4998 31.12C10.6534 31.1217 9.92397 31.1647 9.83169 31.2184ZM34.8707 31.2875C34.1137 31.5373 33.558 31.8942 32.9758 32.5047C32.4075 33.1004 32.1589 33.5267 31.9306 34.2965C31.6363 35.2892 31.7755 36.6536 32.2703 37.6248C32.5362 38.1468 33.4131 39.0376 33.9751 39.3565C35.3238 40.1218 37.0504 40.1176 38.2655 39.346C39.2899 38.6957 39.5684 37.9545 39.0015 37.3876C38.6068 36.9928 38.1942 37.0137 37.668 37.4552C37.1218 37.9135 36.762 38.051 36.1162 38.0486C33.8563 38.04 32.7798 35.1585 34.4678 33.6368C35.2637 32.9194 36.4718 32.7849 37.4488 33.305C38.0524 33.6263 38.3535 33.6208 38.733 33.2818C38.9852 33.0565 39.0369 32.9428 39.0369 32.6133C39.0369 32.2689 38.9889 32.1749 38.6738 31.9027C38.1004 31.407 37.4106 31.1857 36.324 31.1489C35.6039 31.1244 35.2675 31.1566 34.8707 31.2875ZM12.8534 33.1785C13.123 33.4482 13.0959 33.8711 12.7939 34.1086C12.5986 34.2623 12.4126 34.3029 11.9038 34.3029H11.2605V33.647V32.9911H11.9632C12.5411 32.9911 12.6993 33.0245 12.8534 33.1785ZM13.3565 36.4462C13.6752 36.7459 13.746 37.122 13.558 37.518C13.352 37.9522 13.0822 38.0507 12.0994 38.0507H11.2605V37.1049V36.1592L12.1902 36.1914C13.0155 36.22 13.1463 36.2485 13.3565 36.4462Z" fill="#79C32B"/>
</svg>
