<svg width="54" height="54" viewBox="0 0 54 54" fill="none" xmlns="http://www.w3.org/2000/svg">
<rect x="0.388045" y="0.388045" width="52.5801" height="52.5801" rx="26.2901" stroke="#79C32B" stroke-width="0.77609"/>
<path fill-rule="evenodd" clip-rule="evenodd" d="M32.9784 17.2089C31.3172 17.523 30.0534 18.6768 29.4691 20.4128C29.196 21.2242 29.1096 21.8893 29.0607 23.5597C29.0103 25.279 28.9811 25.4546 28.6314 26.1478C28.5309 26.3469 28.2736 26.686 28.0411 26.9259L27.6289 27.3511L27.1209 27.315C25.6044 27.2074 24.1485 28.0235 23.4845 29.3535C23.3957 29.5314 23.3167 29.6877 23.309 29.7008C23.2911 29.7312 22.2981 29.4731 22.1613 29.4025C22.1001 29.3709 22.0583 29.282 22.0583 29.1833C22.0583 29.0439 22.1145 28.9826 22.4088 28.801C23.38 28.2015 24.1789 27.1248 24.5381 25.931C24.6573 25.5349 24.6694 25.3503 24.6907 23.6039C24.7096 22.0566 24.6972 21.6263 24.6233 21.269C24.0034 18.2715 20.928 16.4858 18.0749 17.4668C16.6738 17.9485 15.5326 19.0363 14.9845 20.4128C14.6736 21.1934 14.6346 21.5828 14.6617 23.6316C14.6843 25.3401 14.6974 25.5362 14.8136 25.9125C15.2008 27.1657 16.0377 28.2756 17.0375 28.8615C17.2566 28.9899 17.2938 29.0395 17.2938 29.2028V29.3939L16.4851 29.6165C14.5459 30.1502 13.804 30.4969 13.0769 31.2091C12.6974 31.5809 12.5496 31.7765 12.3882 32.1208C12.0211 32.9041 12 33.1306 12 36.2948C12 39.3633 12.0008 39.3718 12.3219 39.518C12.4366 39.5703 13.5061 39.5883 16.5025 39.5883H20.529V40.0618C20.529 40.5655 20.6169 40.8308 20.8198 40.9394C20.8901 40.977 21.5932 41 22.6766 41H24.4202L24.5921 40.828C24.8268 40.5933 24.8269 40.3076 24.5925 40.0451L24.421 39.853L23.0632 39.8343L21.7054 39.8156L21.7059 39.5696C21.7066 39.1464 21.8239 38.5725 21.9816 38.2209C22.259 37.6018 22.778 37.249 23.9836 36.8603C24.347 36.7431 24.6575 36.6472 24.6738 36.6472C24.69 36.6472 24.7682 36.7754 24.8476 36.9321C25.0436 37.3189 25.5655 37.7841 25.9848 37.9456C26.67 38.2096 27.5892 38.0832 28.2064 37.64C28.4361 37.475 28.88 36.9164 28.9513 36.7027C28.9783 36.6217 30.1821 37.0026 30.6626 37.2443C31.3423 37.5863 31.6927 38.0478 31.8555 38.8159C31.9009 39.0304 31.9386 39.3431 31.9392 39.5108L31.9402 39.8156L30.5824 39.8343L29.2246 39.853L29.053 40.0451C28.8186 40.3076 28.8187 40.5933 29.0534 40.828L29.2254 41H30.969C32.0523 41 32.7554 40.977 32.8257 40.9394C33.0287 40.8308 33.1166 40.5655 33.1166 40.0618V39.5883H37.1503H41.1841L41.3589 39.4135L41.5337 39.2386L41.5144 36.1048C41.4954 32.9966 41.4942 32.9678 41.3584 32.5886C41.1803 32.0914 41.1234 31.9854 40.7947 31.5389C40.6435 31.3335 40.5283 31.1595 40.5386 31.152C40.5489 31.1446 40.6528 31.0812 40.7695 31.0111C41.3118 30.6853 41.8161 29.9058 42.0392 29.0485C42.1338 28.6846 42.1344 28.6403 42.0467 28.4565C41.9665 28.2882 41.8722 28.2247 41.4312 28.0418C41.1447 27.923 40.7391 27.7262 40.5298 27.6045C39.9865 27.2883 39.3637 26.6512 39.1003 26.1424C38.7336 25.434 38.6968 25.2108 38.6456 23.3832C38.5954 21.5918 38.533 21.1258 38.2258 20.2473C37.7786 18.9681 37.0532 18.1143 35.9694 17.5917C35.1199 17.182 33.9276 17.0294 32.9784 17.2089ZM34.94 18.4456C36.2965 18.8488 37.1115 19.9557 37.3843 21.7654C37.5204 22.6681 37.5328 22.629 37.1017 22.6617C35.9183 22.7513 34.9795 22.2963 34.4642 21.3831C34.2882 21.0711 34.1071 20.9422 33.8452 20.9422C33.6093 20.9422 33.4777 21.0442 33.2529 21.4018C32.642 22.373 31.9352 22.7082 30.602 22.6593L30.2932 22.648L30.294 22.3391C30.2944 22.1693 30.344 21.7918 30.4042 21.5002C30.8429 19.3746 32.1553 18.2334 34.0577 18.3231C34.365 18.3375 34.7621 18.3927 34.94 18.4456ZM20.676 18.5092C21.8801 18.8173 22.9716 19.8539 23.3615 21.0598C23.4463 21.3221 23.4942 21.659 23.5142 22.1333L23.5434 22.8244H22.7937C21.2378 22.8244 19.7443 22.4533 18.761 21.8223C18.3256 21.5429 18.125 21.5749 17.6858 21.9938C17.2579 22.402 16.9519 22.568 16.42 22.6807C15.7576 22.8211 15.802 22.8653 15.8393 22.1039C15.8853 21.1658 16.081 20.6094 16.6148 19.8993C17.5414 18.6666 19.1454 18.1176 20.676 18.5092ZM34.969 23.445C35.5803 23.7433 35.9857 23.8298 36.7782 23.831L37.4693 23.8321V24.3158C37.4693 25.3062 37.1211 26.1242 36.3866 26.8599C35.8468 27.4005 35.2951 27.7088 34.6056 27.8548C33.4292 28.1041 32.1892 27.728 31.325 26.8599C30.6434 26.175 30.3171 25.4271 30.2528 24.4013L30.217 23.8312L30.8874 23.8329C32.0173 23.8358 32.829 23.5535 33.5081 22.9213L33.8494 22.6037L34.2031 22.9238C34.3976 23.0998 34.7423 23.3343 34.969 23.445ZM18.6959 23.1431C19.159 23.3777 20.1341 23.6941 20.8075 23.8283C21.2459 23.9155 21.7639 23.964 22.4917 23.9857L23.5428 24.0171L23.5154 24.7001C23.4955 25.1945 23.4519 25.4886 23.3574 25.7654C22.9648 26.9147 22.0014 27.8803 20.8819 28.2464C20.354 28.4191 19.3545 28.4577 18.7938 28.3271C17.0459 27.9199 15.8233 26.3443 15.8233 24.499V23.9572L16.1712 23.9178C16.9199 23.8331 17.6543 23.5603 18.1467 23.184C18.2762 23.0851 18.3895 23.0034 18.3987 23.0025C18.4079 23.0016 18.5416 23.0649 18.6959 23.1431ZM18.3982 25.7395C18.1945 25.8501 18.1173 25.9955 18.1173 26.2693C18.1173 26.8309 19.206 27.3462 20.0351 27.1771C20.4526 27.092 20.8987 26.8617 21.0927 26.6312C21.3944 26.2726 21.2059 25.7402 20.7515 25.6679C20.5694 25.6389 20.4811 25.6663 20.2235 25.8316C19.8114 26.096 19.5436 26.0978 19.1402 25.839C18.8143 25.6299 18.6427 25.6068 18.3982 25.7395ZM29.89 26.986C30.1726 27.4002 30.7475 27.9833 31.1314 28.245L31.4696 28.4756V28.9375V29.3994L30.9899 29.5288C30.7261 29.6001 30.4779 29.6707 30.4384 29.6858C30.3964 29.702 30.2755 29.5471 30.1471 29.3129C29.8747 28.8158 29.4992 28.3696 29.1173 28.0893L28.8252 27.8748L29.118 27.5229C29.2791 27.3294 29.4705 27.0667 29.5432 26.9393C29.616 26.8118 29.6809 26.7073 29.6875 26.707C29.694 26.7068 29.7851 26.8323 29.89 26.986ZM38.2051 26.9776C38.592 27.6378 39.6514 28.538 40.5069 28.9337L40.8074 29.0726L40.7177 29.301C40.5209 29.802 40.113 30.1255 39.502 30.265C39.235 30.326 39.1779 30.3178 38.8011 30.1645C38.4474 30.0205 37.3676 29.6901 36.5429 29.4734L36.2929 29.4078L36.293 28.9248L36.2931 28.4418L36.5724 28.2661C36.9374 28.0366 37.5671 27.4048 37.8188 27.0154C37.9286 26.8456 38.0247 26.7066 38.0324 26.7066C38.0401 26.7066 38.1178 26.8286 38.2051 26.9776ZM27.7121 28.6433C28.1777 28.8189 28.6487 29.1749 28.9017 29.5423C29.1201 29.8594 29.3826 30.4602 29.3269 30.5158C29.3104 30.5324 29.1654 30.4894 29.0048 30.4203C28.1635 30.0584 26.8447 29.9162 25.8848 30.0839C25.5791 30.1373 25.1424 30.2482 24.9142 30.3305C24.2481 30.5704 24.2744 30.5671 24.3204 30.4062C24.5005 29.7759 25.0271 29.1054 25.5769 28.8062C26.2292 28.4511 27.0389 28.3894 27.7121 28.6433ZM34.1165 29.095C34.4239 29.0774 34.7627 29.0372 34.8695 29.0056C35.1237 28.9305 35.1425 28.9846 35.0987 29.6614C35.0538 30.3545 34.8854 30.6588 34.4145 30.8975C33.9289 31.1437 33.4686 31.0922 33.0763 30.7478C32.7451 30.457 32.6488 30.1828 32.6473 29.5261L32.646 28.9635L33.1019 29.0453C33.394 29.0976 33.7584 29.1155 34.1165 29.095ZM19.6761 29.5594C20.0966 29.5594 20.5429 29.5407 20.6678 29.5179L20.8949 29.4764L20.8722 29.878C20.854 30.2006 20.8167 30.327 20.6826 30.5204C20.4841 30.8069 20.0201 31.0593 19.6921 31.0593C19.0262 31.0593 18.4703 30.4866 18.4703 29.8007V29.4786L18.6908 29.519C18.8122 29.5412 19.2555 29.5594 19.6761 29.5594ZM17.5338 30.8937C17.8076 31.4802 18.4152 31.9699 19.0855 32.1444C19.554 32.2664 19.9104 32.2595 20.3635 32.1195C21.0278 31.9143 21.5145 31.5019 21.8231 30.8828C21.8957 30.7373 21.9606 30.6116 21.9673 30.6036C21.974 30.5957 22.1097 30.6268 22.2689 30.673C22.4281 30.7191 22.6708 30.7862 22.8083 30.8221L23.0583 30.8874L23.0593 31.5763C23.0612 32.8766 23.3793 33.7302 24.1562 34.5198C24.5682 34.9386 24.5922 34.9774 24.5757 35.1985L24.5582 35.433L23.5857 35.7611C22.4592 36.1413 21.9346 36.4284 21.4628 36.9232C21.1171 37.2856 20.9334 37.5921 20.765 38.0876L20.6649 38.3825L18.5129 38.3979L16.361 38.4133L16.3421 37.1136L16.3233 35.8139L16.1312 35.6424C15.8716 35.4106 15.5985 35.4106 15.339 35.6424L15.1469 35.8139L15.1272 37.1129L15.1075 38.4119H14.142H13.1764V36.0082C13.1764 34.6396 13.2019 33.4701 13.2357 33.2921C13.4117 32.3641 13.9691 31.7642 15.0884 31.2982C15.4254 31.1579 17.169 30.6159 17.3573 30.5929C17.3761 30.5906 17.4555 30.726 17.5338 30.8937ZM31.7266 30.9017C32.2105 31.8909 33.3931 32.4348 34.4489 32.1537C35.1255 31.9735 35.6934 31.5166 36.0018 30.9042C36.081 30.7468 36.1482 30.6114 36.1511 30.6031C36.1614 30.5736 37.8126 31.0566 38.2003 31.2026C39.2603 31.6016 39.9103 32.1272 40.1847 32.8071C40.3205 33.1435 40.3223 33.178 40.3396 35.7796L40.3572 38.4119H39.3838H38.4104V37.1728C38.4104 36.376 38.387 35.8878 38.3447 35.8052C38.1548 35.4338 37.6946 35.3542 37.406 35.6428L37.234 35.8147V37.114V38.4133L35.1082 38.3979L32.9825 38.3825L32.9121 38.1441C32.676 37.3444 31.9976 36.5841 31.1622 36.183C30.8945 36.0546 30.3711 35.853 29.9991 35.7351C29.0137 35.423 29.058 35.4482 29.058 35.1993C29.058 35.0123 29.1142 34.925 29.4848 34.5362C30.276 33.7063 30.5873 32.875 30.5873 31.5927V30.851L31.0432 30.7258C31.2938 30.657 31.5158 30.598 31.5362 30.5947C31.5567 30.5914 31.6424 30.7295 31.7266 30.9017ZM27.5286 31.2381C28.0392 31.3187 28.7216 31.5487 29.109 31.7708L29.4247 31.9518L29.3858 32.2453C29.2999 32.8927 28.8906 33.584 28.3636 33.9719C27.7298 34.4383 26.8271 34.5909 26.0671 34.36C25.1269 34.0744 24.4147 33.2311 24.2637 32.2246L24.2231 31.9534L24.4994 31.7914C24.8386 31.5926 25.629 31.3155 26.0609 31.2439C26.5097 31.1695 27.0792 31.1672 27.5286 31.2381ZM26.8228 35.6179C27.1301 35.6179 27.4941 35.5977 27.6316 35.5731L27.8815 35.5282V35.8732C27.8815 36.4174 27.581 36.7752 27.0399 36.8752C26.3242 37.0074 25.8199 36.6226 25.7745 35.9095L25.7501 35.526L26.0071 35.572C26.1483 35.5972 26.5154 35.6179 26.8228 35.6179ZM26.6066 39.9094C26.0156 40.1665 26.1868 41 26.8306 41C27.0136 41 27.106 40.961 27.2391 40.828C27.5419 40.5252 27.4373 40.0787 27.0228 39.9056C26.7921 39.8092 26.838 39.8088 26.6066 39.9094Z" fill="#79C32B"/>
<path fill-rule="evenodd" clip-rule="evenodd" d="M25.77 9.05572C24.6915 9.23542 23.5813 9.89874 22.8984 10.7715C21.8629 12.095 21.603 13.7724 22.19 15.3451C22.7015 16.7156 23.9545 17.8493 25.3825 18.2337C26.0893 18.424 27.1379 18.4093 27.842 18.1993C29.4811 17.7104 30.6851 16.4762 31.1159 14.8431C31.2065 14.4994 31.2407 14.19 31.2424 13.6961C31.2455 12.8492 31.1384 12.3953 30.7458 11.5922C30.1074 10.2862 28.8737 9.35259 27.4186 9.07419C26.9403 8.98267 26.2547 8.97502 25.77 9.05572ZM27.3072 10.2545C28.5555 10.519 29.5891 11.5021 29.9669 12.7844C30.1122 13.2774 30.1023 14.191 29.9463 14.6768C29.5715 15.8447 28.6563 16.7416 27.4912 17.0828C27.0132 17.2229 26.1352 17.2238 25.6711 17.0848C25.0371 16.895 24.5799 16.6302 24.1361 16.1959C23.2103 15.2901 22.8554 14.0651 23.1664 12.8488C23.3364 12.1844 23.5975 11.7331 24.107 11.2236C24.9892 10.3415 26.1124 10.0014 27.3072 10.2545ZM25.1155 11.8959C24.9393 11.9935 24.8197 12.2046 24.8169 12.4226C24.814 12.6627 25.1522 12.9902 25.4031 12.9902C25.6414 12.9902 25.9913 12.663 25.9913 12.4401C25.9913 11.967 25.5179 11.6728 25.1155 11.8959ZM27.4912 11.9246C27.3942 11.9853 26.739 12.6164 26.0354 13.327C24.7738 14.601 24.7561 14.6223 24.7561 14.8678C24.7561 15.2189 24.9979 15.4607 25.349 15.4607C25.595 15.4607 25.6149 15.444 26.9171 14.1519C27.6426 13.4321 28.2737 12.7717 28.3196 12.6844C28.4756 12.387 28.3795 12.042 28.1003 11.8976C27.8816 11.7846 27.7024 11.7925 27.4912 11.9246ZM27.54 14.37C27.1646 14.5333 27.0899 15.0216 27.398 15.2969C27.6514 15.5233 27.9407 15.5203 28.1722 15.2888C28.4705 14.9904 28.3924 14.524 28.0178 14.3675C27.7786 14.2676 27.7754 14.2676 27.54 14.37Z" fill="#79C32B"/>
</svg>
