<svg width="54" height="54" viewBox="0 0 54 54" fill="none" xmlns="http://www.w3.org/2000/svg">
<path fill-rule="evenodd" clip-rule="evenodd" d="M29.9963 14.9164C29.561 15.0211 29.3003 15.4972 29.4805 15.8584C29.6628 16.2237 29.8513 16.2963 30.8037 16.3675C31.8894 16.4488 32.5634 16.58 33.5085 16.8942C36.9719 18.0455 39.5925 20.9749 40.3356 24.5258C40.4158 24.9088 40.5052 25.6505 40.5344 26.174L40.5874 27.1257L40.8078 27.319C41.1255 27.5978 41.5226 27.5902 41.7986 27.3001C41.9961 27.0924 42.0005 27.0715 42.0005 26.3341C42.0005 24.3887 41.3494 22.189 40.2656 20.4728C38.612 17.8543 35.9925 15.9676 33.0146 15.2503C32.0022 15.0064 30.3717 14.8261 29.9963 14.9164ZM40.5388 28.8984C40.3002 29.0149 40.0973 29.438 40.1554 29.6979C40.2728 30.2227 40.9918 30.4279 41.3794 30.0471C41.96 29.4769 41.2739 28.5393 40.5388 28.8984ZM39.2068 31.752C39.1441 31.788 38.8779 32.1168 38.6151 32.4826C36.8355 34.9607 34.0329 36.5018 30.8635 36.7451C29.9152 36.8179 28.9841 36.8279 28.9841 36.7652C28.9841 36.7406 29.1407 36.5578 29.3321 36.359C29.6344 36.0452 29.6802 35.9605 29.6802 35.7148C29.6802 35.3184 29.3903 35.0324 28.9886 35.0324C28.7201 35.0324 28.651 35.0811 27.7682 35.8937C26.4445 37.1119 26.2947 37.3393 26.515 37.7953C26.685 38.1472 28.5568 39.9265 28.8157 39.9824C29.2732 40.0811 29.6802 39.7588 29.6802 39.2977C29.6802 39.0453 29.6349 38.9598 29.3252 38.627L28.9701 38.2454L29.621 38.2443C31.8563 38.2406 33.7105 37.8412 35.4347 36.992C37.3027 36.0718 38.7953 34.7973 39.9161 33.165C40.334 32.5564 40.3919 32.3695 40.2544 32.0731C40.1058 31.7528 39.519 31.573 39.2068 31.752Z" fill="#79C32B"/>
<path fill-rule="evenodd" clip-rule="evenodd" d="M24.0039 38.084C24.4392 37.9793 24.6999 37.5032 24.5197 37.142C24.3375 36.7766 24.149 36.7041 23.1966 36.6329C22.1108 36.5516 21.4368 36.4204 20.4917 36.1062C17.0283 34.9548 14.4078 32.0255 13.6647 28.4746C13.5845 28.0915 13.495 27.3499 13.4659 26.8264L13.4128 25.8747L13.1925 25.6813C12.8748 25.4026 12.4776 25.4102 12.2017 25.7003C12.0041 25.9079 11.9998 25.9289 11.9998 26.6662C11.9998 28.6117 12.6508 30.8113 13.7347 32.5276C15.3883 35.1461 18.0078 37.0328 20.9857 37.7501C21.9981 37.994 23.6285 38.1743 24.0039 38.084ZM13.4615 24.102C13.7 23.9855 13.9029 23.5623 13.8448 23.3024C13.7275 22.7777 13.0085 22.5725 12.6209 22.9532C12.0403 23.5234 12.7264 24.461 13.4615 24.102ZM14.7935 21.2483C14.8561 21.2124 15.1224 20.8836 15.3851 20.5177C17.1648 18.0396 19.9674 16.4985 23.1368 16.2552C24.085 16.1824 25.0161 16.1725 25.0161 16.2352C25.0161 16.2598 24.8595 16.4425 24.6681 16.6413C24.3659 16.9552 24.3201 17.0399 24.3201 17.2855C24.3201 17.682 24.6099 17.968 25.0116 17.968C25.2802 17.968 25.3492 17.9193 26.2321 17.1067C27.5557 15.8885 27.7056 15.661 27.4853 15.205C27.3152 14.8532 25.4435 13.0738 25.1846 13.018C24.7271 12.9193 24.3201 13.2416 24.3201 13.7027C24.3201 13.9551 24.3653 14.0405 24.6751 14.3734L25.0301 14.7549L24.3792 14.756C22.1439 14.7597 20.2897 15.1592 18.5656 16.0084C16.6976 16.9285 15.205 18.2031 14.0841 19.8354C13.6663 20.444 13.6084 20.6309 13.7458 20.9273C13.8944 21.2476 14.4813 21.4274 14.7935 21.2483Z" fill="#79C32B"/>
<rect x="0.388045" y="0.388045" width="52.5801" height="52.5801" rx="26.2901" stroke="#79C32B" stroke-width="0.77609"/>
</svg>
