<svg width="54" height="54" viewBox="0 0 54 54" fill="none" xmlns="http://www.w3.org/2000/svg">
<path fill-rule="evenodd" clip-rule="evenodd" d="M22.2688 16.1783C22.1855 16.188 21.9326 16.2167 21.7067 16.2422C18.1495 16.6439 14.8791 18.9228 13.2166 22.1583C12.6268 23.306 12.2885 24.3634 12.0808 25.7086C11.9731 26.4059 11.9731 28.0379 12.0808 28.7352C12.2887 30.0812 12.6281 31.143 13.215 32.2832C14.7112 35.1904 17.4809 37.3257 20.669 38.0302C21.5155 38.2172 21.9992 38.2649 23.047 38.2649C24.0951 38.2649 24.5795 38.2171 25.4251 38.0301C27.0208 37.6771 28.5253 36.9645 29.8786 35.9207C30.3515 35.556 31.3812 34.5263 31.7459 34.0535C32.7912 32.6982 33.5026 31.1962 33.8553 29.6C34.0424 28.7534 34.0901 28.2697 34.0901 27.2219C34.0901 26.1738 34.0423 25.6894 33.8552 24.8438C33.1507 21.6588 31.0313 18.9048 28.1281 17.4018C26.9678 16.8011 25.8555 16.4453 24.5604 16.2605C24.0917 16.1936 22.5991 16.1401 22.2688 16.1783ZM24.0199 17.6229C26.5343 17.8964 28.8238 19.1052 30.4075 20.9956C32.6307 23.6493 33.2765 27.1504 32.1467 30.4249C31.6135 31.9703 30.5502 33.5094 29.2733 34.5839C26.8847 36.5939 23.734 37.3281 20.7088 36.5795C18.6955 36.0814 16.8182 34.8753 15.5191 33.2453C13.6303 30.8757 12.9623 27.8225 13.6894 24.8837C14.1664 22.9556 15.3027 21.1333 16.8208 19.8614C18.3114 18.6126 20.107 17.8394 22.0093 17.6272C22.4725 17.5756 23.5633 17.5732 24.0199 17.6229ZM20.7085 21.6835C20.5126 21.7464 20.3638 21.8688 20.2773 22.0382C20.1972 22.1952 20.1933 22.3113 20.1933 24.5394V26.876H19.6731C19.0728 26.876 18.922 26.921 18.7452 27.1527C18.501 27.4729 18.5826 27.9414 18.9228 28.1717C19.0656 28.2684 19.1322 28.28 19.6368 28.2957L20.1933 28.313V28.7836V29.2541H19.6813C19.2301 29.2541 19.1469 29.2659 18.9809 29.3537C18.7611 29.4699 18.5931 29.7442 18.5942 29.9851C18.5952 30.2026 18.7577 30.4664 18.9619 30.582C19.1143 30.6683 19.1946 30.6796 19.6637 30.6802L20.1933 30.6809L20.194 31.47C20.1947 32.2062 20.2013 32.2705 20.2913 32.4295C20.4284 32.6713 20.7262 32.8203 20.993 32.7803C21.2428 32.7428 21.503 32.5086 21.5719 32.2591C21.5982 32.164 21.6198 31.77 21.6199 31.3835L21.6202 30.6809L23.6199 30.68C25.476 30.6791 25.6324 30.6732 25.7968 30.5986C26.2115 30.4103 26.3223 29.8742 26.0182 29.5278C25.7746 29.2503 25.808 29.2541 23.6105 29.2541H21.6202V28.784V28.3138L23.1227 28.2906C24.3974 28.2708 24.6843 28.2544 25.0144 28.1821C26.2091 27.9207 27.0862 27.2904 27.5214 26.3807C27.6243 26.1656 27.7343 25.8826 27.7658 25.7518C27.8409 25.441 27.8394 24.6696 27.7631 24.3682C27.4806 23.2517 26.6607 22.3479 25.5689 21.9495C24.8492 21.6868 24.7519 21.677 22.7011 21.6618C21.6667 21.654 20.77 21.6638 20.7085 21.6835ZM24.7955 23.176C25.4286 23.3608 25.9672 23.7738 26.205 24.2568C26.7462 25.3561 26.1671 26.4382 24.8592 26.7714C24.6397 26.8273 24.2736 26.8466 23.1011 26.8639L21.6202 26.8858V24.9749V23.064L23.0795 23.0826C24.2975 23.098 24.5812 23.1134 24.7955 23.176Z" fill="#79C32B"/>
<path fill-rule="evenodd" clip-rule="evenodd" d="M27.0147 17.4365C26.2759 17.4365 25.5573 17.5199 24.8673 17.6777L24.5471 16.2774C25.3414 16.0957 26.1674 16 27.0147 16C33.1612 16 38.1326 21.0277 38.1326 27.2155C38.1326 33.4032 33.1612 38.4309 27.0147 38.4309C26.1674 38.4309 25.3414 38.3352 24.5471 38.1536L24.8673 36.7532C25.5573 36.911 26.2759 36.9944 27.0147 36.9944C32.3553 36.9944 36.6962 32.6226 36.6962 27.2155C36.6962 21.8083 32.3553 17.4365 27.0147 17.4365Z" fill="#79C32B"/>
<path fill-rule="evenodd" clip-rule="evenodd" d="M30.8818 17.4365C30.3245 17.4365 29.7788 17.4839 29.2482 17.575L29.0054 16.1592C29.6158 16.0545 30.2428 16 30.8818 16C37.0283 16 41.9997 21.0277 41.9997 27.2155C41.9997 33.4032 37.0283 38.4309 30.8818 38.4309C30.2428 38.4309 29.6158 38.3765 29.0054 38.2717L29.2482 36.856C29.7788 36.947 30.3245 36.9944 30.8818 36.9944C36.2224 36.9944 40.5633 32.6226 40.5633 27.2155C40.5633 21.8083 36.2224 17.4365 30.8818 17.4365Z" fill="#79C32B"/>
<rect x="0.388045" y="0.388045" width="52.5801" height="52.5801" rx="26.2901" stroke="#79C32B" stroke-width="0.77609"/>
</svg>
