<svg width="30" height="48" viewBox="0 0 30 48" fill="none" xmlns="http://www.w3.org/2000/svg">
<path fill-rule="evenodd" clip-rule="evenodd" d="M3.51377 0.160734C1.95375 0.57489 0.790363 1.64842 0.2231 3.19747L0 3.80652V23.999V44.1914L0.2231 44.8005C0.794486 46.3607 1.97239 47.4356 3.55687 47.8427C4.34957 48.0464 10.418 48.0549 10.8088 47.8528C11.08 47.7125 11.2909 47.357 11.2909 47.0402C11.2909 46.7767 11.0484 46.3378 10.8493 46.2409C10.7572 46.1961 9.1639 46.1383 7.30863 46.1125C4.10876 46.0679 3.91302 46.0551 3.4998 45.8641C2.94294 45.6067 2.33277 44.9965 2.07537 44.4396L1.87401 44.004L1.84965 26.6929L1.82519 9.3817H14.5707H27.3161L27.2915 26.6929L27.2668 44.004L27.0398 44.4653C26.7502 45.0537 26.1968 45.6071 25.641 45.8641C25.2278 46.0551 25.0321 46.0679 21.8322 46.1125C19.9769 46.1383 18.3837 46.1961 18.2915 46.2409C18.0924 46.3378 17.8499 46.7767 17.8499 47.0402C17.8499 47.357 18.0609 47.7125 18.332 47.8528C18.7228 48.0549 24.7913 48.0464 25.584 47.8427C26.4443 47.6217 27.1127 47.2442 27.7551 46.6165C28.4099 45.9768 28.9294 45.0206 29.0926 44.1552C29.2239 43.4585 29.2239 4.53945 29.0926 3.84269C28.761 2.08337 27.3608 0.611808 25.584 0.155206C24.7653 -0.0552456 4.30788 -0.0499986 3.51377 0.160734ZM25.641 2.13388C26.1991 2.39183 26.8091 3.00267 27.0636 3.55831C27.2396 3.94248 27.2672 4.20138 27.2972 5.75081L27.3312 7.50769H14.5792H1.82716V5.92968C1.82716 4.20194 1.91561 3.71976 2.34673 3.09759C2.67721 2.62084 3.16867 2.25428 3.74727 2.0532C4.18382 1.9015 4.94766 1.89157 14.711 1.91134L25.2054 1.93252L25.641 2.13388ZM8.88814 3.85262C8.36717 4.06279 8.21584 4.863 8.61032 5.32157C8.81196 5.556 8.90604 5.5858 9.54648 5.61813C10.2547 5.65392 10.2603 5.65233 10.5873 5.32531C11.0303 4.8823 11.0333 4.51406 10.5975 4.07826C10.3002 3.78094 10.2392 3.76005 9.68394 3.76558C9.35664 3.76886 8.99861 3.80802 8.88814 3.85262ZM13.2689 3.88861C12.6289 4.2486 12.6657 5.25551 13.3289 5.53024C13.5208 5.60979 14.5336 5.63312 16.9489 5.61372L20.3025 5.58683L20.5286 5.32391C20.8352 4.96738 20.8351 4.42598 20.5286 4.06945L20.3025 3.80652L16.8977 3.7846C14.1882 3.76708 13.4471 3.78835 13.2689 3.88861ZM10.7875 17.7802C7.8684 19.902 7.34312 20.3193 7.27874 20.5678C7.17352 20.9737 7.24192 21.2362 7.52696 21.5212C7.7345 21.7289 7.83842 21.7608 8.21931 21.7344L8.66738 21.7033V24.1233L8.66729 26.5433L8.94118 26.8172L9.21506 27.0911H14.5704H19.9258L20.1997 26.8172L20.4735 26.5433L20.4734 24.1233V21.7033L20.9215 21.7344C21.3024 21.7608 21.4063 21.7289 21.6139 21.5212C21.9 21.2352 21.9672 20.9737 21.8606 20.562C21.7943 20.306 21.3007 19.9135 18.3559 17.7744C15.3097 15.5618 14.8891 15.2848 14.5745 15.2848C14.2599 15.2848 13.8395 15.5619 10.7875 17.7802ZM16.5849 18.8104L18.5995 20.2746V22.7458V25.2171H17.0535H15.5074V24.3691C15.5074 23.4224 15.3853 23.0708 14.9947 22.8928C14.684 22.7513 14.4569 22.7513 14.1461 22.8928C13.7555 23.0708 13.6334 23.4224 13.6334 24.3691V25.2171H12.0874H10.5413V22.7453V20.2736L12.5324 18.8186C13.6276 18.0184 14.5341 17.3596 14.5469 17.355C14.5597 17.3502 15.4769 18.0051 16.5849 18.8104ZM9.26585 30.9297C8.6553 31.1802 8.48298 31.981 8.94118 32.4392L9.21506 32.7131H14.5704H19.9258L20.1997 32.4392C20.5735 32.0653 20.5738 31.6102 20.2002 31.192L19.9268 30.8859L14.6953 30.8673C11.818 30.857 9.37473 30.8851 9.26585 30.9297ZM6.04134 34.7979C5.50481 35.1614 5.4454 35.7777 5.90266 36.2349L6.12885 36.4611H14.5704H23.012L23.2382 36.2349C23.6954 35.7777 23.636 35.1614 23.0995 34.7979L22.7883 34.5871H14.5704H6.35251L6.04134 34.7979ZM8.39715 42.5171C8.27712 42.6011 8.11961 42.812 8.04709 42.9856C7.93371 43.257 7.93371 43.3455 8.04709 43.6169C8.32097 44.2725 7.96191 44.2383 14.5704 44.2383C21.1789 44.2383 20.8199 44.2725 21.0937 43.6169C21.2071 43.3455 21.2071 43.257 21.0937 42.9856C20.8199 42.3301 21.1789 42.3643 14.5704 42.3643C9.21647 42.3643 8.59327 42.3797 8.39715 42.5171ZM14.1122 46.2431C13.2999 46.6933 13.6398 47.9863 14.5704 47.9863C15.0452 47.9863 15.5074 47.5285 15.5074 47.0584C15.5074 46.3549 14.73 45.9006 14.1122 46.2431Z" fill="#79C32B"/>
</svg>
