<svg width="36" height="36" viewBox="0 0 36 36" fill="none" xmlns="http://www.w3.org/2000/svg">
<ellipse cx="17.9995" cy="18.3602" rx="15.8824" ry="16.2" fill="white"/>
<path fill-rule="evenodd" clip-rule="evenodd" d="M16.6067 0.019419C11.5859 0.477758 7.07873 2.8639 3.98443 6.70168C2.40683 8.65828 1.16431 11.1464 0.556603 13.5656C-0.0125304 15.8312 -0.152684 18.3652 0.170705 20.5406C0.754833 24.4694 2.5586 28.0413 5.35352 30.8034C6.81187 32.2447 8.18081 33.2251 9.99486 34.1276C11.7728 35.0121 13.6275 35.5897 15.586 35.8689C16.6876 36.026 19.2438 36.0463 20.232 35.906C22.4601 35.5895 24.3131 35.0111 26.2349 34.0322C28.9758 32.6358 31.3927 30.4639 33.0976 27.865C33.6632 27.0027 34.5779 25.1764 34.9494 24.1676C35.2833 23.2609 35.7039 21.5816 35.8667 20.5054C36.024 19.4661 36.0476 16.7635 35.908 15.7868C35.4715 12.7335 34.4666 10.1117 32.8279 7.75139C32.1843 6.82429 31.6968 6.24235 30.8055 5.33737C28.0158 2.50479 24.5128 0.737493 20.5135 0.145061C19.8308 0.0439276 17.2481 -0.0391059 16.6067 0.019419ZM28.8301 9.42016C29.058 9.56024 29.2776 9.92829 29.2776 10.1702C29.2776 10.353 25.7729 25.8733 25.6751 26.1233C25.5056 26.557 24.8979 26.8559 24.4117 26.7449C24.2585 26.7099 23.0726 25.9508 21.4452 24.8461C19.954 23.8338 18.7126 23.0055 18.6866 23.0055C18.6606 23.0055 18.0633 23.5535 17.359 24.2232C15.7364 25.7665 15.7554 25.7522 15.329 25.7522C15.0377 25.7522 14.9491 25.7175 14.7455 25.5233C14.5298 25.3175 14.4083 25.0071 13.5402 22.4421C13.0092 20.8734 12.5395 19.5533 12.4965 19.5086C12.4534 19.464 11.2303 19.105 9.77847 18.7109C7.4012 18.0656 7.11949 17.9737 6.94512 17.7874C6.82573 17.6598 6.75154 17.5019 6.75154 17.3757C6.75154 17.1408 7.03304 16.7688 7.26499 16.697C7.35038 16.6706 11.6809 15.1126 16.8882 13.2348C22.0956 11.357 26.7522 9.68067 27.2361 9.50975C28.1887 9.17332 28.4085 9.16092 28.8301 9.42016ZM19.2508 15.6475C16.1172 17.4475 13.528 18.9599 13.4972 19.0085C13.4663 19.0571 13.4406 19.1749 13.44 19.2704C13.4383 19.541 14.9416 23.9915 15.0346 23.9915C15.1416 23.9915 15.1654 23.8586 15.3389 22.3013C15.4187 21.5847 15.4995 20.9273 15.5186 20.8404C15.5415 20.736 17.2061 19.3309 20.4267 16.6971C25.4267 12.6084 25.6164 12.4344 25.1243 12.3906C25.0031 12.3799 23.1756 13.3932 19.2508 15.6475Z" fill="black"/>
<path fill-rule="evenodd" clip-rule="evenodd" d="M16.6067 0.019419C11.5859 0.477758 7.07873 2.8639 3.98443 6.70168C2.40683 8.65828 1.16431 11.1464 0.556603 13.5656C-0.0125304 15.8312 -0.152684 18.3652 0.170705 20.5406C0.754833 24.4694 2.5586 28.0413 5.35352 30.8034C6.81187 32.2447 8.18081 33.2251 9.99486 34.1276C11.7728 35.0121 13.6275 35.5897 15.586 35.8689C16.6876 36.026 19.2438 36.0463 20.232 35.906C22.4601 35.5895 24.3131 35.0111 26.2349 34.0322C28.9758 32.6358 31.3927 30.4639 33.0976 27.865C33.6632 27.0027 34.5779 25.1764 34.9494 24.1676C35.2833 23.2609 35.7039 21.5816 35.8667 20.5054C36.024 19.4661 36.0476 16.7635 35.908 15.7868C35.4715 12.7335 34.4666 10.1117 32.8279 7.75139C32.1843 6.82429 31.6968 6.24235 30.8055 5.33737C28.0158 2.50479 24.5128 0.737493 20.5135 0.145061C19.8308 0.0439276 17.2481 -0.0391059 16.6067 0.019419ZM28.8301 9.42016C29.058 9.56024 29.2776 9.92829 29.2776 10.1702C29.2776 10.353 25.7729 25.8733 25.6751 26.1233C25.5056 26.557 24.8979 26.8559 24.4117 26.7449C24.2585 26.7099 23.0726 25.9508 21.4452 24.8461C19.954 23.8338 18.7126 23.0055 18.6866 23.0055C18.6606 23.0055 18.0633 23.5535 17.359 24.2232C15.7364 25.7665 15.7554 25.7522 15.329 25.7522C15.0377 25.7522 14.9491 25.7175 14.7455 25.5233C14.5298 25.3175 14.4083 25.0071 13.5402 22.4421C13.0092 20.8734 12.5395 19.5533 12.4965 19.5086C12.4534 19.464 11.2303 19.105 9.77847 18.7109C7.4012 18.0656 7.11949 17.9737 6.94512 17.7874C6.82573 17.6598 6.75154 17.5019 6.75154 17.3757C6.75154 17.1408 7.03304 16.7688 7.26499 16.697C7.35038 16.6706 11.6809 15.1126 16.8882 13.2348C22.0956 11.357 26.7522 9.68067 27.2361 9.50975C28.1887 9.17332 28.4085 9.16092 28.8301 9.42016ZM19.2508 15.6475C16.1172 17.4475 13.528 18.9599 13.4972 19.0085C13.4663 19.0571 13.4406 19.1749 13.44 19.2704C13.4383 19.541 14.9416 23.9915 15.0346 23.9915C15.1416 23.9915 15.1654 23.8586 15.3389 22.3013C15.4187 21.5847 15.4995 20.9273 15.5186 20.8404C15.5415 20.736 17.2061 19.3309 20.4267 16.6971C25.4267 12.6084 25.6164 12.4344 25.1243 12.3906C25.0031 12.3799 23.1756 13.3932 19.2508 15.6475Z" fill="url(#paint0_linear_420_143)"/>
<defs>
<linearGradient id="paint0_linear_420_143" x1="5.2722" y1="5.2722" x2="30.7278" y2="30.7278" gradientUnits="userSpaceOnUse">
<stop stop-color="#33BEF0"/>
<stop offset="1" stop-color="#0A85D9"/>
</linearGradient>
</defs>
</svg>
