<svg width="40" height="40" viewBox="0 0 40 40" fill="none" xmlns="http://www.w3.org/2000/svg">
<circle cx="20" cy="20" r="20" fill="#DCEBD8"/>
<g clip-path="url(#clip0_98_472)">
<path fill-rule="evenodd" clip-rule="evenodd" d="M24.3203 28.9826C24.5887 29.1726 24.9345 29.2201 25.2428 29.1035C25.5512 28.986 25.7778 28.7226 25.8462 28.4035C26.5703 25.0001 28.327 16.386 28.9862 13.2901C29.0362 13.0568 28.9528 12.8143 28.7695 12.6585C28.5862 12.5026 28.332 12.4576 28.1053 12.5418C24.6112 13.8351 13.8503 17.8726 9.452 19.5001C9.17283 19.6035 8.99116 19.8718 9.00033 20.166C9.01033 20.461 9.20866 20.7168 9.4945 20.8026C11.467 21.3926 14.0562 22.2135 14.0562 22.2135C14.0562 22.2135 15.2662 25.8676 15.897 27.726C15.9762 27.9593 16.1587 28.1426 16.3995 28.206C16.6395 28.2685 16.8962 28.2026 17.0753 28.0335C18.0887 27.0768 19.6553 25.5976 19.6553 25.5976C19.6553 25.5976 22.632 27.7801 24.3203 28.9826V28.9826ZM15.1453 21.7518L16.5445 26.3668L16.8553 23.4443C16.8553 23.4443 22.2612 18.5685 25.3428 15.7893C25.4328 15.7076 25.4453 15.571 25.3703 15.4751C25.2962 15.3793 25.1595 15.3568 25.057 15.4218C21.4853 17.7026 15.1453 21.7518 15.1453 21.7518Z" fill="#79C32B"/>
</g>
<defs>
<clipPath id="clip0_98_472">
<rect width="20" height="20" fill="white" transform="translate(9 10)"/>
</clipPath>
</defs>
</svg>
