<svg width="89" height="23" viewBox="0 0 89 23" fill="none" xmlns="http://www.w3.org/2000/svg">
<g clip-path="url(#clip0_218_843)">
<path d="M26.6972 20.7628H39.9537V22.9835H24.4386V7.61719H39.9308V9.83785H26.6972V14.8833H37.5984C37.5984 16.1219 36.0193 17.1262 34.7714 17.1262H26.6972V20.7628Z" fill="#205640"/>
<path d="M65.957 22.9825L61.0633 17.2008C63.7212 16.7402 65.0716 14.6738 65.0716 12.4967C65.0716 10.057 63.389 7.59473 60.0217 7.59473H49.4925V22.9825H51.7061V9.83672H60.0217C61.9048 9.83672 62.8349 11.1776 62.8349 12.4967C62.8349 13.8386 61.9048 15.179 60.0217 15.179L56.7439 15.1824C55.7066 15.1839 54.3113 16.1552 54.3113 17.048V17.2139H58.2096L63.0568 22.9825H65.957Z" fill="#205640"/>
<path d="M6.051 15.3604L2.61535 7.59863H0L5.712 20.3895L5.88978 20.0364C6.50585 18.6756 6.66707 16.7217 6.051 15.3604Z" fill="#205640"/>
<path d="M16.5471 7.59863H13.9425C13.936 7.59863 13.9302 7.60251 13.9277 7.60783L6.94305 22.9383L6.96605 22.9893L6.96506 22.9911H6.96704H9.57994H9.5819L9.58088 22.9893L16.5471 7.59863Z" fill="#205640"/>
<path d="M73.1956 8.07137V8.05909H73.1833V8.04681H73.158V8.03453H73.1334V8.02225H73.1211V8.01004H73.0965V7.99776H73.0719V7.98548H73.0596V7.97319H73.035V7.96091H73.0097V7.94863H72.9974V7.93635H72.9728V7.92407H72.9482V7.91186H72.9359V7.89958H72.9113V7.88729H72.8867V7.87501H72.8736V7.86273H72.849V7.85045H72.8367V7.83817H72.8121V7.82596H72.7875V7.81368H72.7752V7.8014H72.7506V7.78911H72.7383V7.77683H72.713V7.76455H72.6884V7.75227H72.6761V7.74006H72.6515V7.72778H72.6392V7.7155H72.6146V7.70322H72.5893V7.69093H72.577V7.67865H72.5524V7.66637H72.5401V7.65409H72.5155V7.64188H72.5032V7.6296H72.4786V7.61732H72.4663V7.60503H72.4409V7.59275H72.4163V7.58047H72.404V7.56819H72.3794V7.55598H72.3671V7.5437H72.3423V7.53142H72.33V7.51914H72.3053V7.50685H72.2929V7.49457H72.2681V7.48229H72.2558V7.47008H72.2311V7.4578H72.2187V7.44552H72.194V7.43324H72.1816V7.42095H72.1569V7.40867H72.1446V7.39639H72.1198V7.38411H72.1074V7.3719H72.0827V7.35962H72.0703V7.34734H72.0457V7.33506H72.0333V7.32277H72.0085V7.31049H71.9962V7.29821H71.9715V7.286H71.9591V7.27372H71.9467V7.26144H71.922V7.24916H71.9096V7.23688H71.8849V7.22459H71.8726V7.21231H71.8478V7.20003H71.8354V7.18779H71.8107V7.17553H71.7983V7.16325H71.786V7.15098H71.7613V7.13871H71.7489V7.12644H71.7242V7.11416H71.7118V7.10189H71.6871V7.08962H71.6747V7.07734H71.6624V7.06508H71.6376V7.0528H71.6253V7.04053H71.6006V7.02826H71.5882V7.01599H71.5635V7.00372H71.5511V6.99145H71.5387V6.97917H71.514V6.9669H71.5017V6.95463H71.4893V6.94236H71.4645V6.93009H71.4522V6.91781H71.4398V6.90554H71.4151V6.89327H71.4027V6.881H71.378V6.86872H71.3656V6.85646H71.3533V6.84418H71.3286V6.83191H71.3162V6.81964H71.3038V6.80737H71.2791V6.7951H71.2667V6.78282H71.2543V6.77055H71.2297V6.75828H71.2173V6.74601H71.2049V6.73373H71.1802V6.72147H71.1678V6.70919H71.1555V6.69692H71.1308V6.68465H71.1184V6.67238H71.106V6.66011H71.0813V6.64784H71.0689V6.63556H71.0566V6.62329H71.0442V6.61102H71.0195V6.59875H71.0071V6.58648H70.9947V6.5742H70.9701V6.56193H70.9577V6.54966H70.9453V6.53739H70.9329V6.52511H70.9082V6.51285H70.8958V6.50057H70.8834V6.4883H70.8711V6.47603H70.8464V6.46376H70.834V6.45149H70.8216V6.43921H70.8093V6.42694H70.7846V6.41467H70.7722V6.4024H70.7599V6.39012H70.7475V6.37786H70.7227V6.36558H70.7104V6.35331H70.6981V6.34104H70.6857V6.32877H70.6733V6.31649H70.6486V6.30422H70.6362V6.29195H70.6238V6.27968H70.6114V6.26741H70.5991V6.25514H70.5868V6.24287H70.562V6.23059H70.5497V6.21832H70.5373V6.20605H70.5249V6.19378H70.5126V6.1815H70.4879V6.16924H70.4755V6.15696H70.4631V6.14469H70.4507V6.13242H70.4384V6.12015H70.4261V6.10788H70.4013V6.0956H70.3889V6.08333H70.3766V6.07106H70.3642V6.05879H70.3518V6.04651H70.3395V6.03425H70.3272V6.02197H70.3148V6.0097H70.3024V5.99743H70.29V5.98516H70.2653V5.97288H70.2529V5.96062H70.2406V5.94834H70.2282V5.93607H70.2159V5.9238H70.2035V5.91153H70.1911V5.89926H70.1787V5.88698H70.1664V5.87471H70.154V5.86244H70.1293V5.85017H70.117V5.83789H70.1046V5.82563H70.0922V5.81335H70.0798V5.80108H70.0675V5.78881H70.0552V5.77654H70.0428V5.76426H70.0304V5.75199H70.018V5.73972H70.0057V5.72745H69.9933V5.71518H69.9809V5.7029H69.9686V5.69064H69.9562V5.67836H69.9439V5.66609H69.9315V5.65382H69.9191V5.64155H69.9068V5.62927H69.8944V5.617H69.882V5.60473H69.8697V5.59246H69.8573V5.58019H69.845V5.55565H69.8326V5.54337H69.8202V5.5311H69.8078V5.51883H69.7955V5.50656H69.7832V5.49428H69.7708V5.48202H69.7584V5.46974H69.7461V5.45747H69.7337V5.4452H69.7213V5.43293H69.7089V5.42065H69.6966V5.39611H69.6843V5.38384H69.6719V5.37157H69.6595V5.35929H69.6471V5.34703H69.6348V5.32248H69.6224V5.31021H69.61V5.29794H69.5977V5.28566H69.5853V5.2734H69.573V5.24885H69.5606V5.23658H69.5482V5.21204H69.5358V5.19976H69.5235V5.18749H69.5112V5.16295H69.4988V5.15067H69.4864V5.13841H69.4741V5.11386H69.4617V5.10159H69.4493V5.08931H69.4369V5.06477H69.4246V5.04023H69.4123V5.02796H69.3999V5.00342H69.3875V4.97887H69.3751V4.9666H69.3628V4.94205H69.3504V4.91751H69.338V4.90524H69.3257V4.88069H69.3134V4.85615H69.301V4.84388H69.2886V4.81934H69.2762V4.7948H69.2639V4.77025H69.2515V4.74571H69.2392V4.72116H69.2268V4.69661H69.2144V4.67207H69.2021V4.64753H69.1897V4.62299H69.1773V4.59844H69.1649V4.5739H69.1526V4.54936H69.1403V4.52481H69.1279V4.50027H69.1155V4.46345H69.1031V4.42664H69.0908V4.40209H69.0784V4.36528H69.066V4.34074H69.0537V4.30392H69.0414V4.26711H69.029V4.24256H69.0166V4.20575H69.0042V4.16893H68.9919V4.13212H68.9795V4.0953H68.9672V4.04621H68.9548V4.00939H68.9424V3.96031H68.9301V3.9235H68.9177V3.8744H68.9053V3.83759H68.893V3.77623H68.8806V3.71487H68.8683V3.65352H68.8559V3.60443H68.8435V3.54307H68.8312V3.48171H68.8188V3.39581H68.8064V3.29763H68.794V3.19946H68.7817V3.11355H68.7694V2.90493H68.757V2.2668H68.7694V2.095H68.7817V1.96001H68.794V1.8741H68.8064V1.7882H68.8188V1.7023H68.8312V1.62866H68.8435V1.56731H68.8559V1.50595H68.8683V1.44459H68.8806V1.3955H68.893V1.33414H68.9053V1.28505H68.9177V1.23597H68.9301V1.19915H68.9424V1.15006H68.9548V1.11325H68.9672V1.06417H68.9795V1.02735H68.9919V0.978259H69.0042V0.941444H69.0166V0.904628H69.029V0.867819H69.0414V0.84327H69.0537V0.806454H69.066V0.769638H69.0784V0.732823H69.0908V0.708282H69.1031V0.671467H69.1155V0.634651H69.1279V0.610108H69.1403V0.585564H69.1526V0.548748H69.1649V0.524205H69.1773V0.499661H69.1897V0.475118H69.2021V0.450574H69.2144V0.42603H69.2268V0.401487H69.2392V0.364671H69.2515V0.340128H69.2639V0.315584H69.2762V0.29104H69.2886V0.266497H69.301V0.241954H69.3134V0.229682H69.3257V0.205138H69.338V0.180594H69.3504V0.156051H69.3628V0.131508H69.3751V0.119235H69.3875V0.0946916H69.3999V0.0701486H69.4123V0.045605H69.4246V0.0333327H69.4369V0.00878906H69.4741V0.0333327H69.4864V0.045605H69.4988V0.0578764H69.5112V0.0701486H69.5235V0.0824201H69.5358V0.0946916H69.5482V0.106964H69.5606V0.119235H69.573V0.131508H69.5853V0.143779H69.5977V0.156051H69.61V0.168323H69.6224V0.180594H69.6348V0.192866H69.6471V0.205138H69.6595V0.21741H69.6719V0.229682H69.6843V0.241954H69.6966V0.254225H69.7089V0.278769H69.7213V0.29104H69.7337V0.303313H69.7461V0.315584H69.7584V0.327856H69.7708V0.340128H69.7832V0.352399H69.7955V0.364671H69.8078V0.376943H69.8202V0.389215H69.8326V0.401487H69.845V0.413759H69.8573V0.42603H69.8697V0.438303H69.882V0.450574H69.8944V0.462846H69.9068V0.475118H69.9191V0.487389H69.9315V0.499661H69.9439V0.511933H69.9562V0.536477H69.9686V0.548748H69.9809V0.56102H69.9933V0.573292H70.0057V0.585564H70.018V0.597835H70.0304V0.610108H70.0428V0.622379H70.0552V0.634651H70.0675V0.646923H70.0798V0.659194H70.0922V0.671467H70.1046V0.683738H70.117V0.69601H70.1293V0.708282H70.1417V0.720554H70.154V0.732823H70.1664V0.745097H70.1787V0.757371H70.1911V0.781913H70.2035V0.794187H70.2159V0.806454H70.2282V0.818729H70.2406V0.831003H70.2529V0.84327H70.2653V0.855545H70.2777V0.867819H70.29V0.880086H70.3024V0.892361H70.3148V0.904628H70.3272V0.916902H70.3395V0.929176H70.3518V0.941444H70.3642V0.953718H70.3766V0.965992H70.3889V0.978259H70.4013V0.990534H70.4137V1.00281H70.4261V1.01508H70.4384V1.03962H70.4507V1.05189H70.4631V1.06417H70.4755V1.07643H70.4879V1.08871H70.5002V1.10098H70.5126V1.11325H70.5249V1.12552H70.5373V1.1378H70.5497V1.15006H70.562V1.16234H70.5744V1.17461H70.5868V1.18688H70.5991V1.19915H70.6114V1.21143H70.6238V1.2237H70.6362V1.23597H70.6486V1.24824H70.6609V1.26051H70.6733V1.28505H70.6857V1.29733H70.6981V1.3096H70.7104V1.32187H70.7227V1.33414H70.7351V1.34642H70.7475V1.35869H70.7599V1.37096H70.7722V1.38323H70.7846V1.3955H70.7969V1.40778H70.8093V1.42005H70.8216V1.43232H70.834V1.44459H70.8464V1.45686H70.8588V1.46913H70.8711V1.48141H70.8834V1.49367H70.8958V1.50595H70.9082V1.51822H70.9206V1.54277H70.9329V1.55504H70.9453V1.56731H70.9577V1.57958H70.9701V1.59186H70.9824V1.60412H70.9947V1.6164H71.0071V1.62866H71.0195V1.64094H71.0318V1.65321H71.0442V1.66548H71.0566V1.67775H71.0689V1.69003H71.0813V1.7023H71.0936V1.71457H71.106V1.72684H71.1184V1.73911H71.1308V1.75139H71.1431V1.76366H71.1555V1.7882H71.1678V1.80047H71.1802V1.81274H71.1926V1.82502H71.2049V1.83729H71.2173V1.84956H71.2297V1.86183H71.242V1.8741H71.2543V1.88638H71.2667V1.89865H71.2791V1.91092H71.2915V1.92319H71.3038V1.93547H71.3162V1.94773H71.3286V1.96001H71.3409V1.97227H71.3533V1.98455H71.3656V1.99682H71.378V2.00909H71.3904V2.02136H71.4027V2.04591H71.4151V2.05818H71.4275V2.07045H71.4398V2.08272H71.4522V2.095H71.4645V2.10727H71.4769V2.11954H71.4893V2.13181H71.5017V2.14409H71.514V2.15635H71.5263V2.16863H71.5387V2.1809H71.5511V2.19317H71.5635V2.20544H71.5758V2.21771H71.5882V2.22999H71.6006V2.24226H71.6129V2.25453H71.6253V2.2668H71.6376V2.29134H71.65V2.30362H71.6624V2.31589H71.6747V2.32816H71.6871V2.34043H71.6995V2.3527H71.7118V2.36497H71.7242V2.37725H71.7365V2.38952H71.7489V2.40179H71.7613V2.41407H71.7737V2.42633H71.786V2.43861H71.7983V2.45088H71.8107V2.46315H71.8231V2.47542H71.8354V2.4877H71.8478V2.49996H71.8602V2.51224H71.8726V2.52451H71.8849V2.54905H71.8972V2.56132H71.9096V2.5736H71.922V2.58587H71.9344V2.59814H71.9467V2.61041H71.9591V2.62269H71.9715V2.63495H71.9838V2.64723H71.9962V2.6595H72.0085V2.67177H72.0209V2.68404H72.0333V2.69631H72.0457V2.70859H72.058V2.72086H72.0703V2.73313H72.0827V2.75768H72.0951V2.76994H72.1074V2.78222H72.1198V2.79449H72.1322V2.80676H72.1446V2.81903H72.1569V2.83131H72.1692V2.85585H72.1816V2.86812H72.194V2.88039H72.2064V2.89266H72.2187V2.91721H72.2311V2.92948H72.2435V2.94175H72.2558V2.95402H72.2681V2.97856H72.2805V2.99084H72.2929V3.00311H72.3053V3.01538H72.3176V3.03993H72.33V3.0522H72.3423V3.06447H72.3547V3.07674H72.3671V3.10129H72.3794V3.11355H72.3917V3.12583H72.404V3.15037H72.4163V3.16264H72.4286V3.18718H72.4409V3.19946H72.454V3.224H72.4663V3.23627H72.4786V3.26082H72.4909V3.27309H72.5032V3.29763H72.5155V3.30991H72.5278V3.33445H72.5401V3.34672H72.5524V3.37126H72.5647V3.38354H72.577V3.40808H72.5893V3.42035H72.6023V3.4449H72.6146V3.45716H72.6269V3.48171H72.6392V3.49398H72.6515V3.51853H72.6638V3.53079H72.6761V3.55534H72.6884V3.56761H72.7007V3.59216H72.713V3.6167H72.7253V3.64124H72.7383V3.66578H72.7506V3.67806H72.7629V3.7026H72.7752V3.72715H72.7875V3.75169H72.7998V3.77623H72.8121V3.80077H72.8244V3.82532H72.8367V3.84986H72.849V3.8744H72.8613V3.89895H72.8736V3.9235H72.8867V3.93577H72.899V3.96031H72.9113V3.98485H72.9236V4.00939H72.9359V4.03394H72.9482V4.05848H72.9605V4.08303H72.9728V4.11984H72.9851V4.14439H72.9974V4.1812H73.0097V4.21802H73.0227V4.24256H73.035V4.27938H73.0473V4.30392H73.0596V4.34074H73.0719V4.36528H73.0842V4.40209H73.0965V4.42664H73.1088V4.46345H73.1211V4.488H73.1334V4.52481H73.1457V4.56163H73.158V4.59844H73.171V4.63526H73.1833V4.68435H73.1956V4.72116H73.2079V4.77025H73.2202V4.81934H73.2325V4.85615H73.2448V4.90524H73.2571V4.95433H73.2694V4.99114H73.2817V5.04023H73.294V5.08931H73.3063V5.16295H73.3194V5.23658H73.3317V5.31021H73.344V5.38384H73.3563V5.46974H73.3686V5.54337H73.3809V5.617H73.3932V5.85017H73.4055V6.10788H73.4178V6.25514H73.4055V6.53739H73.3932V6.67238H73.3809V6.78282H73.3686V6.89327H73.3563V6.99145H73.344V7.10189H73.3317V7.20003H73.3194V7.31049H73.3063V7.42095H73.294V7.51914H73.2817V7.6296H73.2694V7.72778H73.2571V7.83817H73.2448V7.94863H73.2325V8.04681H73.2202V8.07137" fill="url(#paint0_linear_218_843)"/>
<path d="M77.0899 14.5877V14.5754H77.0653V14.5632H77.0407V14.551H77.0154V14.5387H76.9908V14.5264H76.9785V14.5141H76.9539V14.5018H76.9416V14.4895H76.917V14.4773H76.8917V14.4651H76.8794V14.4528H76.8547V14.4405H76.8424V14.4282H76.8178V14.4159H76.8055V14.4036H76.7809V14.3914H76.7686V14.3792H76.7433V14.3669H76.731V14.3546H76.7187V14.3423H76.6941V14.33H76.6818V14.3177H76.6695V14.3055H76.6449V14.2933H76.6326V14.281H76.6203V14.2687H76.595V14.2564H76.5827V14.2441H76.5704V14.2319H76.5458V14.2196H76.5335V14.2073H76.5212V14.1951H76.4966V14.1828H76.4843V14.1705H76.472V14.1582H76.459V14.146H76.4467V14.1337H76.4344V14.1214H76.422V14.1092H76.3974V14.0969H76.3851V14.0846H76.3728V14.0723H76.3605V14.0601H76.3482V14.0478H76.3359V14.0355H76.3236V14.0233H76.3106V14.011H76.2983V13.9987H76.286V13.9864H76.2737V13.9742H76.2614V13.9619H76.2368V13.9496H76.2245V13.9373H76.2122V13.9251H76.1999V13.9128H76.1876V13.9005H76.1746V13.8883H76.1623V13.8637H76.15V13.8514H76.1377V13.8392H76.1254V13.8269H76.1131V13.8146H76.1008V13.8024H76.0885V13.7901H76.0762V13.7778H76.0639V13.7655H76.0516V13.741H76.0393V13.7287H76.0263V13.7165H76.014V13.7042H76.0017V13.6919H75.9893V13.6796H75.977V13.6673H75.9648V13.6551H75.9525V13.6428H75.9401V13.6183H75.9278V13.606H75.9155V13.5937H75.9032V13.5692H75.8902V13.5569H75.8779V13.5447H75.8656V13.5201H75.8533V13.5078H75.841V13.4955H75.8287V13.471H75.8164V13.4588H75.8041V13.4465H75.7918V13.4342H75.7795V13.4096H75.7672V13.3974H75.7549V13.3851H75.7419V13.3606H75.7296V13.3483H75.7173V13.336H75.705V13.3115H75.6927V13.287H75.6804V13.2747H75.6681V13.2501H75.6558V13.2378H75.6435V13.2133H75.6312V13.2011H75.6189V13.1765H75.6059V13.1642H75.5936V13.1397H75.5813V13.1152H75.569V13.1029H75.5567V13.0783H75.5444V13.066H75.5321V13.0415H75.5198V13.0293H75.5074V13.0047H75.4951V12.9801H75.4828V12.9556H75.4705V12.9311H75.4575V12.9188H75.4452V12.8942H75.4329V12.8697H75.4206V12.8452H75.4083V12.8206H75.396V12.7961H75.3837V12.7838H75.3714V12.7592H75.3591V12.7347H75.3468V12.7102H75.3345V12.6856H75.3222V12.6611H75.3092V12.6365H75.2969V12.612H75.2846V12.5874H75.2723V12.5506H75.26V12.5261H75.2477V12.5015H75.2354V12.477H75.2231V12.4525H75.2108V12.4156H75.1985V12.3911H75.1862V12.3666H75.1732V12.342H75.1609V12.3052H75.1486V12.2807H75.1363V12.2438H75.124V12.207H75.1117V12.1825H75.0994V12.1456H75.0871V12.1089H75.0747V12.0843H75.0624V12.0475H75.0501V12.0107H75.0378V11.9861H75.0248V11.9493H75.0125V11.9125H75.0002V11.8634H74.9879V11.8266H74.9756V11.7898H74.9633V11.7407H74.951V11.7039H74.9387V11.6671H74.9264V11.618H74.9141V11.5812H74.9018V11.5321H74.8888V11.483H74.8765V11.4216H74.8642V11.3726H74.8519V11.3234H74.8396V11.2621H74.8273V11.213H74.815V11.1516H74.8027V11.078H74.7904V11.0044H74.7781V10.9308H74.7658V10.8572H74.7535V10.7712H74.7405V10.6485H74.7282V10.5258H74.7159V10.3908H74.7036V9.66678H74.7159V9.50719H74.7282V9.38452H74.7405V9.27406H74.7535V9.20044H74.7658V9.13903H74.7781V9.0777H74.7904V9.01636H74.8027V8.94274H74.815V8.88134H74.8273V8.82H74.8396V8.74638H74.8519V8.68505H74.8642V8.62364H74.8765V8.55002H74.8888V8.48869H74.9018V8.42728H74.9141V8.36594H74.9264V8.29233H74.9387V8.23099H74.951V8.16958H74.9633V8.09596H74.9756V8.03463H74.9879V7.97322H75.0002V7.91189H75.0125V7.83827H75.0248V7.77693H75.0378V7.71552H75.0501V7.64191H75.0624V7.58057H75.0747V7.51916H75.0871V7.44555H75.0994V7.38421H75.1117V7.32287H75.124V7.26147H75.1363V7.18786H75.1486V7.12649H75.1609V7.06513H75.1732V6.9915H75.1862V6.93015H75.1985V6.86879H75.2108V6.79516H75.2231V6.7338H75.2354V6.67244H75.2477V6.61108H75.26V6.53744H75.2723V6.47609H75.2846V6.41473H75.2969V6.3411H75.3092V6.27974H75.3222V6.21838H75.3345V6.14475H75.3468V6.08339H75.3591V6.02203H75.3714V5.96067H75.3837V5.88704H75.396V5.82568H75.4083V5.76433H75.4206V5.69069H75.4329V5.62934H75.4452V5.56798H75.4575V5.49435H75.4705V5.43298H75.4828V5.37162H75.4951V5.31027H75.5074V5.23664H75.5198V5.17528H75.5321V5.11392H75.5444V5.04029H75.5567V4.97893H75.569V4.91757H75.5813V4.85621H75.5936V4.78258H75.6059V4.72122H75.6189V4.65986H75.6312V4.62305H75.6435V4.63532H75.6558V4.64759H75.6681V4.65986H75.6804V4.6844H75.6927V4.69668H75.705V4.70895H75.7173V4.72122H75.7296V4.74576H75.7419V4.75804H75.7549V4.77031H75.7672V4.79485H75.7795V4.80713H75.7918V4.81939H75.8041V4.84394H75.8164V4.85621H75.8287V4.86848H75.841V4.89303H75.8533V4.9053H75.8656V4.91757H75.8779V4.92984H75.8902V4.95438H75.9032V4.96666H75.9155V4.97893H75.9278V5.00347H75.9401V5.01575H75.9525V5.02801H75.9648V5.05256H75.977V5.06483H75.9893V5.0771H76.0017V5.10165H76.014V5.11392H76.0263V5.12619H76.0393V5.13846H76.0516V5.163H76.0639V5.17528H76.0762V5.18755H76.0885V5.21209H76.1008V5.22437H76.1131V5.23664H76.1254V5.26118H76.1377V5.27345H76.15V5.28573H76.1623V5.29799H76.1746V5.32254H76.1876V5.33481H76.1999V5.34708H76.2122V5.37162H76.2245V5.3839H76.2368V5.39617H76.2491V5.42071H76.2614V5.43298H76.2737V5.44526H76.286V5.4698H76.2983V5.48207H76.3106V5.49435H76.3236V5.50661H76.3359V5.53116H76.3482V5.54343H76.3605V5.5557H76.3728V5.58025H76.3851V5.59252H76.3974V5.60479H76.4097V5.62934H76.422V5.6416H76.4344V5.65388H76.4467V5.67842H76.459V5.69069H76.472V5.70297H76.4843V5.71523H76.4966V5.73978H76.5089V5.75205H76.5212V5.76433H76.5335V5.78887H76.5458V5.80114H76.5581V5.81341H76.5704V5.83796H76.5827V5.85022H76.595V5.8625H76.6073V5.87477H76.6203V5.89931H76.6326V5.91159H76.6449V5.92386H76.6572V5.9484H76.6695V5.96067H76.6818V5.97295H76.6941V5.99749H76.7064V6.00976H76.7187V6.0343H76.731V6.04658H76.7433V6.07112H76.7563V6.08339H76.7686V6.10794H76.7809V6.12021H76.7932V6.14475H76.8055V6.15702H76.8178V6.18157H76.8301V6.19383H76.8424V6.21838H76.8547V6.23065H76.8671V6.2552H76.8794V6.26747H76.8917V6.29201H76.9047V6.31656H76.917V6.32882H76.9293V6.35337H76.9416V6.36564H76.9539V6.39019H76.9662V6.41473H76.9785V6.43927H76.9908V6.45155H77.0031V6.47609H77.0154V6.50064H77.0277V6.52518H77.0407V6.54972H77.053V6.56199H77.0653V6.58653H77.0776V6.61108H77.0899V6.63562H77.1022V6.66017H77.1145V6.68471H77.1268V6.69698H77.1391V6.72152H77.1514V6.74607H77.1637V6.77061H77.176V6.79516H77.189V6.8197H77.2013V6.83197H77.2136V6.85651H77.2259V6.88105H77.2382V6.9056H77.2505V6.93015H77.2628V6.95469H77.2751V6.9915H77.2875V7.01605H77.2998V7.05286H77.3121V7.07741H77.3251V7.10195H77.3374V7.13877H77.3497V7.16331H77.362V7.18786H77.3743V7.22469H77.3866V7.24919H77.3989V7.27375H77.4112V7.31059H77.4235V7.33508H77.4358V7.35965H77.4481V7.39649H77.4604V7.42098H77.4734V7.45783H77.4857V7.48239H77.498V7.51916H77.5103V7.56829H77.5226V7.60506H77.5349V7.64191H77.5472V7.67875H77.5595V7.71552H77.5718V7.76465H77.5841V7.80142H77.5964V7.83827H77.6094V7.87504H77.6217V7.92417H77.634V7.96101H77.6463V7.99778H77.6586V8.03463H77.6709V8.08368H77.6832V8.14502H77.6955V8.20643H77.7078V8.26776H77.7202V8.3291H77.7325V8.39051H77.7447V8.45184H77.7578V8.51318H77.7701V8.5623H77.7824V8.62364H77.7947V8.70954H77.807V8.83228H77.8193V8.95503H77.8316V9.0777H77.8439V9.20044H77.8562V10.0104H77.8439V10.1576H77.8316V10.3049H77.8193V10.4153H77.807V10.489H77.7947V10.5749H77.7824V10.6485H77.7701V10.7098H77.7578V10.7835H77.7447V10.8572H77.7325V10.9308H77.7202V11.0044H77.7078V11.078H77.6955V11.1516H77.6832V11.2252H77.6709V11.2989H77.6586V11.3726H77.6463V11.4462H77.634V11.5198H77.6217V11.5934H77.6094V11.6671H77.5964V11.7407H77.5841V11.802H77.5718V11.8757H77.5595V11.9493H77.5472V12.023H77.5349V12.0966H77.5226V12.1702H77.5103V12.2438H77.498V12.3174H77.4857V12.3911H77.4734V12.4647H77.4604V12.5384H77.4481V12.612H77.4358V12.6856H77.4235V12.7592H77.4112V12.8329H77.3989V12.9065H77.3866V12.9679H77.3743V13.0415H77.362V13.1152H77.3497V13.1888H77.3374V13.2624H77.3251V13.336H77.3121V13.4096H77.2998V13.4833H77.2875V13.5569H77.2751V13.6306H77.2628V13.7042H77.2505V13.7778H77.2382V13.8514H77.2259V13.9251H77.2136V13.9987H77.2013V14.0601H77.189V14.1337H77.176V14.2073H77.1637V14.281H77.1514V14.3546H77.1391V14.4282H77.1268V14.5018H77.1145V14.5754H77.1022V14.5877" fill="url(#paint1_linear_218_843)"/>
<path d="M88.4747 7.4668H85.6209L79.4748 16.1053C78.8757 16.9481 78.5544 17.9544 78.5559 18.9859L78.5624 22.9476H80.8236V18.2749L88.4747 7.4668Z" fill="#205640"/>
</g>
<defs>
<linearGradient id="paint0_linear_218_843" x1="77.0161" y1="13.6444" x2="70.15" y2="2.48753" gradientUnits="userSpaceOnUse">
<stop stop-color="#458433"/>
<stop offset="0.372937" stop-color="#79C32B"/>
<stop offset="0.696434" stop-color="#EAE807"/>
<stop offset="1" stop-color="#BBD916"/>
</linearGradient>
<linearGradient id="paint1_linear_218_843" x1="78.2896" y1="12.8603" x2="71.4234" y2="1.70354" gradientUnits="userSpaceOnUse">
<stop stop-color="#458433"/>
<stop offset="0.372937" stop-color="#79C32B"/>
<stop offset="0.696434" stop-color="#EAE807"/>
<stop offset="1" stop-color="#BBD916"/>
</linearGradient>
<clipPath id="clip0_218_843">
<rect width="89" height="23" fill="white"/>
</clipPath>
</defs>
</svg>
