<svg width="89" height="23" viewBox="0 0 89 23" fill="none" xmlns="http://www.w3.org/2000/svg">
<g clip-path="url(#clip0_218_1476)">
<path d="M26.6971 20.7628H39.9536V22.9835H24.4385V7.61719H39.9307V9.83785H26.6971V14.8833H37.5982C37.5982 16.1219 36.0192 17.1262 34.7712 17.1262H26.6971V20.7628Z" fill="white"/>
<path d="M65.9572 22.9825L61.0635 17.2008C63.7214 16.7402 65.0718 14.6738 65.0718 12.4967C65.0718 10.057 63.3892 7.59473 60.0219 7.59473H49.4927V22.9825H51.7063V9.83672H60.0219C61.905 9.83672 62.8352 11.1776 62.8352 12.4967C62.8352 13.8386 61.905 15.179 60.0219 15.179L56.7442 15.1824C55.7068 15.1839 54.3115 16.1552 54.3115 17.048V17.2139H58.2098L63.057 22.9825H65.9572Z" fill="white"/>
<path d="M6.051 15.3604L2.61535 7.59863H0L5.712 20.3895L5.88978 20.0364C6.50585 18.6756 6.66707 16.7217 6.051 15.3604Z" fill="white"/>
<path d="M16.5469 7.59863H13.9423C13.9358 7.59863 13.9301 7.60251 13.9275 7.60783L6.94287 22.9383L6.96587 22.9893L6.96487 22.9911H6.96686H9.57976H9.58171L9.5807 22.9893L16.5469 7.59863Z" fill="white"/>
<path d="M73.1955 8.07137V8.05909H73.1832V8.04681H73.1579V8.03453H73.1332V8.02225H73.1209V8.01004H73.0964V7.99776H73.0717V7.98548H73.0594V7.97319H73.0348V7.96091H73.0095V7.94863H72.9972V7.93635H72.9726V7.92407H72.948V7.91186H72.9357V7.89958H72.9111V7.88729H72.8865V7.87501H72.8735V7.86273H72.8489V7.85045H72.8366V7.83817H72.812V7.82596H72.7874V7.81368H72.7751V7.8014H72.7505V7.78911H72.7382V7.77683H72.7128V7.76455H72.6883V7.75227H72.676V7.74006H72.6513V7.72778H72.639V7.7155H72.6144V7.70322H72.5891V7.69093H72.5768V7.67865H72.5522V7.66637H72.5399V7.65409H72.5153V7.64188H72.503V7.6296H72.4784V7.61732H72.4661V7.60503H72.4408V7.59275H72.4162V7.58047H72.4039V7.56819H72.3793V7.55598H72.367V7.5437H72.3422V7.53142H72.3299V7.51914H72.3051V7.50685H72.2927V7.49457H72.268V7.48229H72.2556V7.47008H72.2309V7.4578H72.2186V7.44552H72.1938V7.43324H72.1815V7.42095H72.1568V7.40867H72.1444V7.39639H72.1197V7.38411H72.1073V7.3719H72.0825V7.35962H72.0702V7.34734H72.0455V7.33506H72.0331V7.32277H72.0084V7.31049H71.996V7.29821H71.9713V7.286H71.959V7.27372H71.9466V7.26144H71.9218V7.24916H71.9095V7.23688H71.8848V7.22459H71.8724V7.21231H71.8477V7.20003H71.8353V7.18779H71.8106V7.17553H71.7982V7.16325H71.7859V7.15098H71.7611V7.13871H71.7488V7.12644H71.724V7.11416H71.7116V7.10189H71.687V7.08962H71.6746V7.07734H71.6622V7.06508H71.6375V7.0528H71.6251V7.04053H71.6004V7.02826H71.5881V7.01599H71.5633V7.00372H71.5509V6.99145H71.5386V6.97917H71.5139V6.9669H71.5015V6.95463H71.4891V6.94236H71.4644V6.93009H71.452V6.91781H71.4396V6.90554H71.415V6.89327H71.4026V6.881H71.3779V6.86872H71.3655V6.85646H71.3531V6.84418H71.3284V6.83191H71.3161V6.81964H71.3037V6.80737H71.2789V6.7951H71.2666V6.78282H71.2542V6.77055H71.2295V6.75828H71.2171V6.74601H71.2048V6.73373H71.18V6.72147H71.1677V6.70919H71.1554V6.69692H71.1306V6.68465H71.1182V6.67238H71.1059V6.66011H71.0811V6.64784H71.0687V6.63556H71.0564V6.62329H71.0441V6.61102H71.0193V6.59875H71.0069V6.58648H70.9946V6.5742H70.9699V6.56193H70.9575V6.54966H70.9452V6.53739H70.9328V6.52511H70.908V6.51285H70.8957V6.50057H70.8833V6.4883H70.871V6.47603H70.8462V6.46376H70.8339V6.45149H70.8215V6.43921H70.8091V6.42694H70.7844V6.41467H70.7721V6.4024H70.7597V6.39012H70.7473V6.37786H70.7226V6.36558H70.7102V6.35331H70.6979V6.34104H70.6855V6.32877H70.6732V6.31649H70.6484V6.30422H70.636V6.29195H70.6237V6.27968H70.6113V6.26741H70.599V6.25514H70.5866V6.24287H70.5619V6.23059H70.5495V6.21832H70.5371V6.20605H70.5248V6.19378H70.5125V6.1815H70.4877V6.16924H70.4753V6.15696H70.463V6.14469H70.4506V6.13242H70.4382V6.12015H70.4259V6.10788H70.4012V6.0956H70.3888V6.08333H70.3764V6.07106H70.3641V6.05879H70.3517V6.04651H70.3393V6.03425H70.327V6.02197H70.3146V6.0097H70.3023V5.99743H70.2899V5.98516H70.2651V5.97288H70.2528V5.96062H70.2405V5.94834H70.2281V5.93607H70.2157V5.9238H70.2033V5.91153H70.191V5.89926H70.1786V5.88698H70.1662V5.87471H70.1538V5.86244H70.1292V5.85017H70.1168V5.83789H70.1044V5.82563H70.0921V5.81335H70.0797V5.80108H70.0673V5.78881H70.055V5.77654H70.0426V5.76426H70.0303V5.75199H70.0179V5.73972H70.0055V5.72745H69.9931V5.71518H69.9808V5.7029H69.9685V5.69064H69.9561V5.67836H69.9437V5.66609H69.9313V5.65382H69.919V5.64155H69.9066V5.62927H69.8942V5.617H69.8819V5.60473H69.8696V5.59246H69.8572V5.58019H69.8448V5.55565H69.8324V5.54337H69.8201V5.5311H69.8077V5.51883H69.7953V5.50656H69.783V5.49428H69.7706V5.48202H69.7583V5.46974H69.7459V5.45747H69.7335V5.4452H69.7211V5.43293H69.7088V5.42065H69.6965V5.39611H69.6841V5.38384H69.6717V5.37157H69.6594V5.35929H69.647V5.34703H69.6346V5.32248H69.6222V5.31021H69.6099V5.29794H69.5976V5.28566H69.5852V5.2734H69.5728V5.24885H69.5604V5.23658H69.5481V5.21204H69.5357V5.19976H69.5233V5.18749H69.511V5.16295H69.4986V5.15067H69.4863V5.13841H69.4739V5.11386H69.4615V5.10159H69.4492V5.08931H69.4368V5.06477H69.4244V5.04023H69.4121V5.02796H69.3997V5.00342H69.3874V4.97887H69.375V4.9666H69.3626V4.94205H69.3502V4.91751H69.3379V4.90524H69.3256V4.88069H69.3132V4.85615H69.3008V4.84388H69.2885V4.81934H69.2761V4.7948H69.2637V4.77025H69.2513V4.74571H69.239V4.72116H69.2267V4.69661H69.2143V4.67207H69.2019V4.64753H69.1895V4.62299H69.1772V4.59844H69.1648V4.5739H69.1524V4.54936H69.1401V4.52481H69.1277V4.50027H69.1154V4.46345H69.103V4.42664H69.0906V4.40209H69.0783V4.36528H69.0659V4.34074H69.0536V4.30392H69.0412V4.26711H69.0288V4.24256H69.0165V4.20575H69.0041V4.16893H68.9917V4.13212H68.9793V4.0953H68.967V4.04621H68.9547V4.00939H68.9423V3.96031H68.9299V3.9235H68.9175V3.8744H68.9052V3.83759H68.8928V3.77623H68.8804V3.71487H68.8681V3.65352H68.8558V3.60443H68.8434V3.54307H68.831V3.48171H68.8186V3.39581H68.8063V3.29763H68.7939V3.19946H68.7816V3.11355H68.7692V2.90493H68.7568V2.2668H68.7692V2.095H68.7816V1.96001H68.7939V1.8741H68.8063V1.7882H68.8186V1.7023H68.831V1.62866H68.8434V1.56731H68.8558V1.50595H68.8681V1.44459H68.8804V1.3955H68.8928V1.33414H68.9052V1.28505H68.9175V1.23597H68.9299V1.19915H68.9423V1.15006H68.9547V1.11325H68.967V1.06417H68.9793V1.02735H68.9917V0.978259H69.0041V0.941444H69.0165V0.904628H69.0288V0.867819H69.0412V0.84327H69.0536V0.806454H69.0659V0.769638H69.0783V0.732823H69.0906V0.708282H69.103V0.671467H69.1154V0.634651H69.1277V0.610108H69.1401V0.585564H69.1524V0.548748H69.1648V0.524205H69.1772V0.499661H69.1895V0.475118H69.2019V0.450574H69.2143V0.42603H69.2267V0.401487H69.239V0.364671H69.2513V0.340128H69.2637V0.315584H69.2761V0.29104H69.2885V0.266497H69.3008V0.241954H69.3132V0.229682H69.3256V0.205138H69.3379V0.180594H69.3502V0.156051H69.3626V0.131508H69.375V0.119235H69.3874V0.0946916H69.3997V0.0701486H69.4121V0.045605H69.4244V0.0333327H69.4368V0.00878906H69.4739V0.0333327H69.4863V0.045605H69.4986V0.0578764H69.511V0.0701486H69.5233V0.0824201H69.5357V0.0946916H69.5481V0.106964H69.5604V0.119235H69.5728V0.131508H69.5852V0.143779H69.5976V0.156051H69.6099V0.168323H69.6222V0.180594H69.6346V0.192866H69.647V0.205138H69.6594V0.21741H69.6717V0.229682H69.6841V0.241954H69.6965V0.254225H69.7088V0.278769H69.7211V0.29104H69.7335V0.303313H69.7459V0.315584H69.7583V0.327856H69.7706V0.340128H69.783V0.352399H69.7953V0.364671H69.8077V0.376943H69.8201V0.389215H69.8324V0.401487H69.8448V0.413759H69.8572V0.42603H69.8696V0.438303H69.8819V0.450574H69.8942V0.462846H69.9066V0.475118H69.919V0.487389H69.9313V0.499661H69.9437V0.511933H69.9561V0.536477H69.9685V0.548748H69.9808V0.56102H69.9931V0.573292H70.0055V0.585564H70.0179V0.597835H70.0303V0.610108H70.0426V0.622379H70.055V0.634651H70.0673V0.646923H70.0797V0.659194H70.0921V0.671467H70.1044V0.683738H70.1168V0.69601H70.1292V0.708282H70.1415V0.720554H70.1538V0.732823H70.1662V0.745097H70.1786V0.757371H70.191V0.781913H70.2033V0.794187H70.2157V0.806454H70.2281V0.818729H70.2405V0.831003H70.2528V0.84327H70.2651V0.855545H70.2775V0.867819H70.2899V0.880086H70.3023V0.892361H70.3146V0.904628H70.327V0.916902H70.3393V0.929176H70.3517V0.941444H70.3641V0.953718H70.3764V0.965992H70.3888V0.978259H70.4012V0.990534H70.4135V1.00281H70.4259V1.01508H70.4382V1.03962H70.4506V1.05189H70.463V1.06417H70.4753V1.07643H70.4877V1.08871H70.5001V1.10098H70.5125V1.11325H70.5248V1.12552H70.5371V1.1378H70.5495V1.15006H70.5619V1.16234H70.5742V1.17461H70.5866V1.18688H70.599V1.19915H70.6113V1.21143H70.6237V1.2237H70.636V1.23597H70.6484V1.24824H70.6608V1.26051H70.6732V1.28505H70.6855V1.29733H70.6979V1.3096H70.7102V1.32187H70.7226V1.33414H70.735V1.34642H70.7473V1.35869H70.7597V1.37096H70.7721V1.38323H70.7844V1.3955H70.7967V1.40778H70.8091V1.42005H70.8215V1.43232H70.8339V1.44459H70.8462V1.45686H70.8586V1.46913H70.871V1.48141H70.8833V1.49367H70.8957V1.50595H70.908V1.51822H70.9204V1.54277H70.9328V1.55504H70.9452V1.56731H70.9575V1.57958H70.9699V1.59186H70.9822V1.60412H70.9946V1.6164H71.0069V1.62866H71.0193V1.64094H71.0317V1.65321H71.0441V1.66548H71.0564V1.67775H71.0687V1.69003H71.0811V1.7023H71.0935V1.71457H71.1059V1.72684H71.1182V1.73911H71.1306V1.75139H71.143V1.76366H71.1554V1.7882H71.1677V1.80047H71.18V1.81274H71.1924V1.82502H71.2048V1.83729H71.2171V1.84956H71.2295V1.86183H71.2419V1.8741H71.2542V1.88638H71.2666V1.89865H71.2789V1.91092H71.2913V1.92319H71.3037V1.93547H71.3161V1.94773H71.3284V1.96001H71.3407V1.97227H71.3531V1.98455H71.3655V1.99682H71.3779V2.00909H71.3902V2.02136H71.4026V2.04591H71.415V2.05818H71.4273V2.07045H71.4396V2.08272H71.452V2.095H71.4644V2.10727H71.4768V2.11954H71.4891V2.13181H71.5015V2.14409H71.5139V2.15635H71.5262V2.16863H71.5386V2.1809H71.5509V2.19317H71.5633V2.20544H71.5757V2.21771H71.5881V2.22999H71.6004V2.24226H71.6127V2.25453H71.6251V2.2668H71.6375V2.29134H71.6498V2.30362H71.6622V2.31589H71.6746V2.32816H71.687V2.34043H71.6993V2.3527H71.7116V2.36497H71.724V2.37725H71.7364V2.38952H71.7488V2.40179H71.7611V2.41407H71.7735V2.42633H71.7859V2.43861H71.7982V2.45088H71.8106V2.46315H71.8229V2.47542H71.8353V2.4877H71.8477V2.49996H71.86V2.51224H71.8724V2.52451H71.8848V2.54905H71.8971V2.56132H71.9095V2.5736H71.9218V2.58587H71.9342V2.59814H71.9466V2.61041H71.959V2.62269H71.9713V2.63495H71.9836V2.64723H71.996V2.6595H72.0084V2.67177H72.0208V2.68404H72.0331V2.69631H72.0455V2.70859H72.0579V2.72086H72.0702V2.73313H72.0825V2.75768H72.0949V2.76994H72.1073V2.78222H72.1197V2.79449H72.132V2.80676H72.1444V2.81903H72.1568V2.83131H72.1691V2.85585H72.1815V2.86812H72.1938V2.88039H72.2062V2.89266H72.2186V2.91721H72.2309V2.92948H72.2433V2.94175H72.2556V2.95402H72.268V2.97856H72.2804V2.99084H72.2927V3.00311H72.3051V3.01538H72.3175V3.03993H72.3299V3.0522H72.3422V3.06447H72.3545V3.07674H72.367V3.10129H72.3793V3.11355H72.3916V3.12583H72.4039V3.15037H72.4162V3.16264H72.4285V3.18718H72.4408V3.19946H72.4538V3.224H72.4661V3.23627H72.4784V3.26082H72.4907V3.27309H72.503V3.29763H72.5153V3.30991H72.5276V3.33445H72.5399V3.34672H72.5522V3.37126H72.5645V3.38354H72.5768V3.40808H72.5891V3.42035H72.6021V3.4449H72.6144V3.45716H72.6267V3.48171H72.639V3.49398H72.6513V3.51853H72.6636V3.53079H72.676V3.55534H72.6883V3.56761H72.7006V3.59216H72.7128V3.6167H72.7252V3.64124H72.7382V3.66578H72.7505V3.67806H72.7628V3.7026H72.7751V3.72715H72.7874V3.75169H72.7997V3.77623H72.812V3.80077H72.8243V3.82532H72.8366V3.84986H72.8489V3.8744H72.8612V3.89895H72.8735V3.9235H72.8865V3.93577H72.8988V3.96031H72.9111V3.98485H72.9234V4.00939H72.9357V4.03394H72.948V4.05848H72.9603V4.08303H72.9726V4.11984H72.9849V4.14439H72.9972V4.1812H73.0095V4.21802H73.0225V4.24256H73.0348V4.27938H73.0471V4.30392H73.0594V4.34074H73.0717V4.36528H73.084V4.40209H73.0964V4.42664H73.1087V4.46345H73.1209V4.488H73.1332V4.52481H73.1455V4.56163H73.1579V4.59844H73.1709V4.63526H73.1832V4.68435H73.1955V4.72116H73.2078V4.77025H73.2201V4.81934H73.2324V4.85615H73.2447V4.90524H73.257V4.95433H73.2693V4.99114H73.2816V5.04023H73.2939V5.08931H73.3062V5.16295H73.3192V5.23658H73.3315V5.31021H73.3438V5.38384H73.3561V5.46974H73.3684V5.54337H73.3807V5.617H73.393V5.85017H73.4053V6.10788H73.4176V6.25514H73.4053V6.53739H73.393V6.67238H73.3807V6.78282H73.3684V6.89327H73.3561V6.99145H73.3438V7.10189H73.3315V7.20003H73.3192V7.31049H73.3062V7.42095H73.2939V7.51914H73.2816V7.6296H73.2693V7.72778H73.257V7.83817H73.2447V7.94863H73.2324V8.04681H73.2201V8.07137" fill="white"/>
<path d="M77.09 14.5877V14.5754H77.0654V14.5632H77.0408V14.551H77.0154V14.5387H76.9908V14.5264H76.9785V14.5141H76.9539V14.5018H76.9416V14.4895H76.917V14.4773H76.8917V14.4651H76.8794V14.4528H76.8548V14.4405H76.8425V14.4282H76.8179V14.4159H76.8056V14.4036H76.781V14.3914H76.7687V14.3792H76.7434V14.3669H76.7311V14.3546H76.7188V14.3423H76.6942V14.33H76.6819V14.3177H76.6696V14.3055H76.645V14.2933H76.6327V14.281H76.6204V14.2687H76.595V14.2564H76.5827V14.2441H76.5704V14.2319H76.5458V14.2196H76.5335V14.2073H76.5212V14.1951H76.4966V14.1828H76.4843V14.1705H76.472V14.1582H76.459V14.146H76.4467V14.1337H76.4344V14.1214H76.4221V14.1092H76.3975V14.0969H76.3852V14.0846H76.3729V14.0723H76.3606V14.0601H76.3483V14.0478H76.336V14.0355H76.3237V14.0233H76.3107V14.011H76.2984V13.9987H76.2861V13.9864H76.2738V13.9742H76.2615V13.9619H76.2369V13.9496H76.2246V13.9373H76.2123V13.9251H76.2V13.9128H76.1877V13.9005H76.1746V13.8883H76.1623V13.8637H76.15V13.8514H76.1377V13.8392H76.1254V13.8269H76.1131V13.8146H76.1008V13.8024H76.0885V13.7901H76.0762V13.7778H76.0639V13.7655H76.0516V13.741H76.0393V13.7287H76.0263V13.7165H76.014V13.7042H76.0017V13.6919H75.9894V13.6796H75.9771V13.6673H75.9648V13.6551H75.9525V13.6428H75.9402V13.6183H75.9279V13.606H75.9156V13.5937H75.9033V13.5692H75.8903V13.5569H75.878V13.5447H75.8657V13.5201H75.8534V13.5078H75.8411V13.4955H75.8288V13.471H75.8165V13.4588H75.8042V13.4465H75.7919V13.4342H75.7796V13.4096H75.7673V13.3974H75.755V13.3851H75.742V13.3606H75.7297V13.3483H75.7173V13.336H75.705V13.3115H75.6927V13.287H75.6804V13.2747H75.6681V13.2501H75.6558V13.2378H75.6435V13.2133H75.6312V13.2011H75.6189V13.1765H75.6059V13.1642H75.5936V13.1397H75.5813V13.1152H75.569V13.1029H75.5567V13.0783H75.5444V13.066H75.5321V13.0415H75.5198V13.0293H75.5075V13.0047H75.4952V12.9801H75.4829V12.9556H75.4706V12.9311H75.4576V12.9188H75.4453V12.8942H75.433V12.8697H75.4207V12.8452H75.4084V12.8206H75.3961V12.7961H75.3838V12.7838H75.3715V12.7592H75.3592V12.7347H75.3469V12.7102H75.3346V12.6856H75.3223V12.6611H75.3093V12.6365H75.2969V12.612H75.2846V12.5874H75.2723V12.5506H75.26V12.5261H75.2477V12.5015H75.2354V12.477H75.2231V12.4525H75.2108V12.4156H75.1985V12.3911H75.1862V12.3666H75.1732V12.342H75.1609V12.3052H75.1486V12.2807H75.1363V12.2438H75.124V12.207H75.1117V12.1825H75.0994V12.1456H75.0871V12.1089H75.0748V12.0843H75.0625V12.0475H75.0502V12.0107H75.0379V11.9861H75.0249V11.9493H75.0126V11.9125H75.0003V11.8634H74.988V11.8266H74.9757V11.7898H74.9634V11.7407H74.9511V11.7039H74.9388V11.6671H74.9265V11.618H74.9142V11.5812H74.9019V11.5321H74.8889V11.483H74.8766V11.4216H74.8642V11.3726H74.8519V11.3234H74.8396V11.2621H74.8273V11.213H74.815V11.1516H74.8027V11.078H74.7904V11.0044H74.7781V10.9308H74.7658V10.8572H74.7535V10.7712H74.7405V10.6485H74.7282V10.5258H74.7159V10.3908H74.7036V9.66678H74.7159V9.50719H74.7282V9.38452H74.7405V9.27406H74.7535V9.20044H74.7658V9.13903H74.7781V9.0777H74.7904V9.01636H74.8027V8.94274H74.815V8.88134H74.8273V8.82H74.8396V8.74638H74.8519V8.68505H74.8642V8.62364H74.8766V8.55002H74.8889V8.48869H74.9019V8.42728H74.9142V8.36594H74.9265V8.29233H74.9388V8.23099H74.9511V8.16958H74.9634V8.09596H74.9757V8.03463H74.988V7.97322H75.0003V7.91189H75.0126V7.83827H75.0249V7.77693H75.0379V7.71552H75.0502V7.64191H75.0625V7.58057H75.0748V7.51916H75.0871V7.44555H75.0994V7.38421H75.1117V7.32287H75.124V7.26147H75.1363V7.18786H75.1486V7.12649H75.1609V7.06513H75.1732V6.9915H75.1862V6.93015H75.1985V6.86879H75.2108V6.79516H75.2231V6.7338H75.2354V6.67244H75.2477V6.61108H75.26V6.53744H75.2723V6.47609H75.2846V6.41473H75.2969V6.3411H75.3093V6.27974H75.3223V6.21838H75.3346V6.14475H75.3469V6.08339H75.3592V6.02203H75.3715V5.96067H75.3838V5.88704H75.3961V5.82568H75.4084V5.76433H75.4207V5.69069H75.433V5.62934H75.4453V5.56798H75.4576V5.49435H75.4706V5.43298H75.4829V5.37162H75.4952V5.31027H75.5075V5.23664H75.5198V5.17528H75.5321V5.11392H75.5444V5.04029H75.5567V4.97893H75.569V4.91757H75.5813V4.85621H75.5936V4.78258H75.6059V4.72122H75.6189V4.65986H75.6312V4.62305H75.6435V4.63532H75.6558V4.64759H75.6681V4.65986H75.6804V4.6844H75.6927V4.69668H75.705V4.70895H75.7173V4.72122H75.7297V4.74576H75.742V4.75804H75.755V4.77031H75.7673V4.79485H75.7796V4.80713H75.7919V4.81939H75.8042V4.84394H75.8165V4.85621H75.8288V4.86848H75.8411V4.89303H75.8534V4.9053H75.8657V4.91757H75.878V4.92984H75.8903V4.95438H75.9033V4.96666H75.9156V4.97893H75.9279V5.00347H75.9402V5.01575H75.9525V5.02801H75.9648V5.05256H75.9771V5.06483H75.9894V5.0771H76.0017V5.10165H76.014V5.11392H76.0263V5.12619H76.0393V5.13846H76.0516V5.163H76.0639V5.17528H76.0762V5.18755H76.0885V5.21209H76.1008V5.22437H76.1131V5.23664H76.1254V5.26118H76.1377V5.27345H76.15V5.28573H76.1623V5.29799H76.1746V5.32254H76.1877V5.33481H76.2V5.34708H76.2123V5.37162H76.2246V5.3839H76.2369V5.39617H76.2492V5.42071H76.2615V5.43298H76.2738V5.44526H76.2861V5.4698H76.2984V5.48207H76.3107V5.49435H76.3237V5.50661H76.336V5.53116H76.3483V5.54343H76.3606V5.5557H76.3729V5.58025H76.3852V5.59252H76.3975V5.60479H76.4098V5.62934H76.4221V5.6416H76.4344V5.65388H76.4467V5.67842H76.459V5.69069H76.472V5.70297H76.4843V5.71523H76.4966V5.73978H76.5089V5.75205H76.5212V5.76433H76.5335V5.78887H76.5458V5.80114H76.5581V5.81341H76.5704V5.83796H76.5827V5.85022H76.595V5.8625H76.6073V5.87477H76.6204V5.89931H76.6327V5.91159H76.645V5.92386H76.6573V5.9484H76.6696V5.96067H76.6819V5.97295H76.6942V5.99749H76.7065V6.00976H76.7188V6.0343H76.7311V6.04658H76.7434V6.07112H76.7564V6.08339H76.7687V6.10794H76.781V6.12021H76.7933V6.14475H76.8056V6.15702H76.8179V6.18157H76.8302V6.19383H76.8425V6.21838H76.8548V6.23065H76.8671V6.2552H76.8794V6.26747H76.8917V6.29201H76.9047V6.31656H76.917V6.32882H76.9293V6.35337H76.9416V6.36564H76.9539V6.39019H76.9662V6.41473H76.9785V6.43927H76.9908V6.45155H77.0031V6.47609H77.0154V6.50064H77.0277V6.52518H77.0408V6.54972H77.0531V6.56199H77.0654V6.58653H77.0777V6.61108H77.09V6.63562H77.1023V6.66017H77.1146V6.68471H77.1269V6.69698H77.1392V6.72152H77.1515V6.74607H77.1638V6.77061H77.1761V6.79516H77.1891V6.8197H77.2014V6.83197H77.2137V6.85651H77.226V6.88105H77.2383V6.9056H77.2506V6.93015H77.2629V6.95469H77.2752V6.9915H77.2875V7.01605H77.2998V7.05286H77.3121V7.07741H77.3251V7.10195H77.3374V7.13877H77.3497V7.16331H77.362V7.18786H77.3743V7.22469H77.3866V7.24919H77.3989V7.27375H77.4112V7.31059H77.4235V7.33508H77.4358V7.35965H77.4481V7.39649H77.4604V7.42098H77.4735V7.45783H77.4858V7.48239H77.4981V7.51916H77.5104V7.56829H77.5227V7.60506H77.535V7.64191H77.5473V7.67875H77.5596V7.71552H77.5719V7.76465H77.5842V7.80142H77.5965V7.83827H77.6095V7.87504H77.6218V7.92417H77.6341V7.96101H77.6464V7.99778H77.6587V8.03463H77.671V8.08368H77.6833V8.14502H77.6956V8.20643H77.7079V8.26776H77.7202V8.3291H77.7325V8.39051H77.7448V8.45184H77.7578V8.51318H77.7701V8.5623H77.7824V8.62364H77.7947V8.70954H77.807V8.83228H77.8193V8.95503H77.8316V9.0777H77.8439V9.20044H77.8562V10.0104H77.8439V10.1576H77.8316V10.3049H77.8193V10.4153H77.807V10.489H77.7947V10.5749H77.7824V10.6485H77.7701V10.7098H77.7578V10.7835H77.7448V10.8572H77.7325V10.9308H77.7202V11.0044H77.7079V11.078H77.6956V11.1516H77.6833V11.2252H77.671V11.2989H77.6587V11.3726H77.6464V11.4462H77.6341V11.5198H77.6218V11.5934H77.6095V11.6671H77.5965V11.7407H77.5842V11.802H77.5719V11.8757H77.5596V11.9493H77.5473V12.023H77.535V12.0966H77.5227V12.1702H77.5104V12.2438H77.4981V12.3174H77.4858V12.3911H77.4735V12.4647H77.4604V12.5384H77.4481V12.612H77.4358V12.6856H77.4235V12.7592H77.4112V12.8329H77.3989V12.9065H77.3866V12.9679H77.3743V13.0415H77.362V13.1152H77.3497V13.1888H77.3374V13.2624H77.3251V13.336H77.3121V13.4096H77.2998V13.4833H77.2875V13.5569H77.2752V13.6306H77.2629V13.7042H77.2506V13.7778H77.2383V13.8514H77.226V13.9251H77.2137V13.9987H77.2014V14.0601H77.1891V14.1337H77.1761V14.2073H77.1638V14.281H77.1515V14.3546H77.1392V14.4282H77.1269V14.5018H77.1146V14.5754H77.1023V14.5877" fill="white"/>
<path d="M88.4745 7.4668H85.6207L79.4746 16.1053C78.8755 16.9481 78.5542 17.9544 78.5557 18.9859L78.5622 22.9476H80.8234V18.2749L88.4745 7.4668Z" fill="white"/>
</g>
<defs>
<clipPath id="clip0_218_1476">
<rect width="89" height="23" fill="white"/>
</clipPath>
</defs>
</svg>
