<svg width="36" height="36" viewBox="0 0 36 36" fill="none" xmlns="http://www.w3.org/2000/svg">
<path fill-rule="evenodd" clip-rule="evenodd" d="M16.6067 0.019419C11.5859 0.477758 7.07873 2.8639 3.98443 6.70168C2.40683 8.65828 1.16431 11.1464 0.556603 13.5656C-0.0125304 15.8312 -0.152684 18.3652 0.170705 20.5406C0.754833 24.4694 2.5586 28.0413 5.35352 30.8034C6.81187 32.2447 8.18081 33.2251 9.99486 34.1276C11.7728 35.0121 13.6275 35.5897 15.586 35.8689C16.6876 36.026 19.2438 36.0463 20.232 35.906C22.4601 35.5895 24.3131 35.0111 26.2349 34.0322C28.9758 32.6358 31.3927 30.4639 33.0976 27.865C33.6632 27.0027 34.5779 25.1764 34.9494 24.1676C35.2833 23.2609 35.7039 21.5816 35.8667 20.5054C36.024 19.4661 36.0476 16.7635 35.908 15.7868C35.4715 12.7335 34.4666 10.1117 32.8279 7.75139C32.1843 6.82429 31.6968 6.24235 30.8055 5.33737C28.0158 2.50479 24.5128 0.737493 20.5135 0.145061C19.8308 0.0439276 17.2481 -0.0391059 16.6067 0.019419ZM19.424 6.83831C20.82 7.02423 21.8811 7.35897 23.1614 8.01705C25.7508 9.34812 27.7393 11.7 28.6289 14.4839C29.9167 18.5135 28.8773 22.8216 25.8951 25.8147C22.695 29.0265 17.8162 29.962 13.6029 28.172L13.0278 27.9276L10.1385 28.6103C7.35805 29.2672 7.24247 29.2885 7.07078 29.176C6.95258 29.0985 6.89204 28.9942 6.89141 28.867C6.89092 28.7613 7.15046 27.4108 7.46815 25.8659C8.03932 23.0883 8.04453 23.0535 7.93261 22.7671C7.87038 22.6077 7.70263 22.1772 7.55987 21.8105C6.16488 18.2261 6.85819 13.9686 9.3383 10.8894C11.7392 7.90859 15.654 6.33609 19.424 6.83831ZM17.1595 9.20529C14.7738 9.41777 12.4532 10.7345 10.9937 12.7039C9.01083 15.3795 8.72996 18.917 10.2583 21.9656L10.602 22.6512L10.2583 24.3218C10.0692 25.2405 9.92348 26.0289 9.93446 26.0736C9.94805 26.1286 10.4988 26.0257 11.6439 25.7542L13.3334 25.3536L14.0021 25.6851C15.2046 26.2811 16.276 26.5694 17.563 26.6432C19.909 26.7779 22.2829 25.9089 24.0115 24.2827C26.8205 21.6401 27.5586 17.3976 25.8064 13.9666C24.6171 11.638 22.4881 9.97182 19.9451 9.3796C19.51 9.27825 18.1935 9.12338 17.9191 9.1412C17.8361 9.14662 17.4943 9.17543 17.1595 9.20529ZM14.6689 12.6122C14.9416 12.7262 15.0039 12.8331 15.6254 14.2528C15.8563 14.7805 16.0435 15.3112 16.0435 15.4386C16.0435 15.6091 15.9427 15.8023 15.6564 16.1804C15.1861 16.8013 15.1585 17.0262 15.4875 17.5512C15.7583 17.9835 17.0285 19.243 17.734 19.7789C18.833 20.6137 19.3146 20.8129 19.7262 20.603C19.8108 20.5599 20.0562 20.3528 20.2715 20.143C20.8166 19.6115 20.8877 19.608 22.3791 20.0373C23.4378 20.3421 23.638 20.4223 23.8044 20.6082C23.945 20.7653 23.998 20.8991 23.998 21.0971C23.998 21.6731 22.9627 22.8493 22.1878 23.1534C21.649 23.365 20.4129 23.3808 19.6688 23.1857C17.2691 22.5564 14.1775 19.956 12.9625 17.545C12.573 16.7723 12.4209 16.1511 12.4195 15.3277C12.4183 14.6328 12.4324 14.5582 12.6476 14.1207C12.7932 13.8247 13.056 13.4708 13.3673 13.152C14.0055 12.498 14.2015 12.4168 14.6689 12.6122Z" fill="black"/>
<path fill-rule="evenodd" clip-rule="evenodd" d="M16.6067 0.019419C11.5859 0.477758 7.07873 2.8639 3.98443 6.70168C2.40683 8.65828 1.16431 11.1464 0.556603 13.5656C-0.0125304 15.8312 -0.152684 18.3652 0.170705 20.5406C0.754833 24.4694 2.5586 28.0413 5.35352 30.8034C6.81187 32.2447 8.18081 33.2251 9.99486 34.1276C11.7728 35.0121 13.6275 35.5897 15.586 35.8689C16.6876 36.026 19.2438 36.0463 20.232 35.906C22.4601 35.5895 24.3131 35.0111 26.2349 34.0322C28.9758 32.6358 31.3927 30.4639 33.0976 27.865C33.6632 27.0027 34.5779 25.1764 34.9494 24.1676C35.2833 23.2609 35.7039 21.5816 35.8667 20.5054C36.024 19.4661 36.0476 16.7635 35.908 15.7868C35.4715 12.7335 34.4666 10.1117 32.8279 7.75139C32.1843 6.82429 31.6968 6.24235 30.8055 5.33737C28.0158 2.50479 24.5128 0.737493 20.5135 0.145061C19.8308 0.0439276 17.2481 -0.0391059 16.6067 0.019419ZM19.424 6.83831C20.82 7.02423 21.8811 7.35897 23.1614 8.01705C25.7508 9.34812 27.7393 11.7 28.6289 14.4839C29.9167 18.5135 28.8773 22.8216 25.8951 25.8147C22.695 29.0265 17.8162 29.962 13.6029 28.172L13.0278 27.9276L10.1385 28.6103C7.35805 29.2672 7.24247 29.2885 7.07078 29.176C6.95258 29.0985 6.89204 28.9942 6.89141 28.867C6.89092 28.7613 7.15046 27.4108 7.46815 25.8659C8.03932 23.0883 8.04453 23.0535 7.93261 22.7671C7.87038 22.6077 7.70263 22.1772 7.55987 21.8105C6.16488 18.2261 6.85819 13.9686 9.3383 10.8894C11.7392 7.90859 15.654 6.33609 19.424 6.83831ZM17.1595 9.20529C14.7738 9.41777 12.4532 10.7345 10.9937 12.7039C9.01083 15.3795 8.72996 18.917 10.2583 21.9656L10.602 22.6512L10.2583 24.3218C10.0692 25.2405 9.92348 26.0289 9.93446 26.0736C9.94805 26.1286 10.4988 26.0257 11.6439 25.7542L13.3334 25.3536L14.0021 25.6851C15.2046 26.2811 16.276 26.5694 17.563 26.6432C19.909 26.7779 22.2829 25.9089 24.0115 24.2827C26.8205 21.6401 27.5586 17.3976 25.8064 13.9666C24.6171 11.638 22.4881 9.97182 19.9451 9.3796C19.51 9.27825 18.1935 9.12338 17.9191 9.1412C17.8361 9.14662 17.4943 9.17543 17.1595 9.20529ZM14.6689 12.6122C14.9416 12.7262 15.0039 12.8331 15.6254 14.2528C15.8563 14.7805 16.0435 15.3112 16.0435 15.4386C16.0435 15.6091 15.9427 15.8023 15.6564 16.1804C15.1861 16.8013 15.1585 17.0262 15.4875 17.5512C15.7583 17.9835 17.0285 19.243 17.734 19.7789C18.833 20.6137 19.3146 20.8129 19.7262 20.603C19.8108 20.5599 20.0562 20.3528 20.2715 20.143C20.8166 19.6115 20.8877 19.608 22.3791 20.0373C23.4378 20.3421 23.638 20.4223 23.8044 20.6082C23.945 20.7653 23.998 20.8991 23.998 21.0971C23.998 21.6731 22.9627 22.8493 22.1878 23.1534C21.649 23.365 20.4129 23.3808 19.6688 23.1857C17.2691 22.5564 14.1775 19.956 12.9625 17.545C12.573 16.7723 12.4209 16.1511 12.4195 15.3277C12.4183 14.6328 12.4324 14.5582 12.6476 14.1207C12.7932 13.8247 13.056 13.4708 13.3673 13.152C14.0055 12.498 14.2015 12.4168 14.6689 12.6122Z" fill="url(#paint0_linear_420_142)"/>
<defs>
<linearGradient id="paint0_linear_420_142" x1="33.75" y1="4.5" x2="-8.71718e-07" y2="36" gradientUnits="userSpaceOnUse">
<stop stop-color="#5BD066"/>
<stop offset="1" stop-color="#27B43E"/>
</linearGradient>
</defs>
</svg>
