<svg width="32" height="30" viewBox="0 0 32 30" fill="none" xmlns="http://www.w3.org/2000/svg">
<path fill-rule="evenodd" clip-rule="evenodd" d="M18.6616 0.406536C17.7034 0.606036 16.885 1.16279 16.5068 1.87241C16.1696 2.50491 16.0449 3.09872 16.0465 4.0631C16.0483 5.0736 16.1201 5.3426 16.4375 5.52866C16.6331 5.64329 16.7589 5.65666 17.625 5.65497C18.3605 5.65354 18.6904 5.6261 18.995 5.5411C20.2579 5.18872 20.9995 4.39966 21.2822 3.10722C21.3635 2.73547 21.383 2.40991 21.3644 1.73222C21.3286 0.428224 21.2722 0.373161 19.9375 0.338474C19.3657 0.323599 18.9544 0.345536 18.6616 0.406536ZM20.1103 2.23497C20.0614 3.3006 19.7668 3.86516 19.0944 4.18129C18.7463 4.34491 18.1271 4.45029 17.6562 4.4261L17.2812 4.40685L17.2945 3.85291C17.3324 2.2656 18.0422 1.58572 19.6799 1.56804L20.1411 1.5631L20.1103 2.23497ZM12.5417 5.87379C12.1472 5.95004 12.0002 6.15366 11.9267 6.72566C11.8521 7.30522 11.8996 8.20004 12.0326 8.7236C12.1852 9.32366 12.5233 9.94679 12.8748 10.2755C13.5566 10.9133 14.6756 11.2363 15.9578 11.1654C17.1038 11.102 17.199 10.9978 17.2359 9.76741C17.2665 8.74685 17.1726 8.20316 16.8475 7.5186C16.4522 6.68616 15.6913 6.12716 14.6544 5.90754C14.1991 5.8111 12.9677 5.79141 12.5417 5.87379ZM14.5004 7.16116C15.5254 7.39435 16 8.12379 16 9.46604V9.9381H15.6458C14.8754 9.9381 14.0684 9.70079 13.7138 9.37004C13.3948 9.07247 13.1282 8.20329 13.1261 7.45372L13.125 7.0631H13.5971C13.8567 7.0631 14.2631 7.10722 14.5004 7.16116ZM24.6265 7.97179C24.1807 8.09679 23.7957 8.32597 23.3941 8.70547C23.2155 8.87416 23.0415 8.99497 23.0074 8.97397C22.9734 8.95291 22.7398 8.90979 22.4884 8.8781C21.9434 8.80947 21.263 8.88241 20.6984 9.07004C20.1814 9.24185 19.4478 9.7371 19.0811 10.1618C18.9202 10.3482 18.7429 10.5006 18.6869 10.5006C18.0638 10.5006 17.2205 11.1842 17.0284 11.8448C16.9241 12.2036 16.9257 12.8175 17.0316 13.0787C17.0734 13.182 16.8966 13.1881 13.8306 13.1881H10.5853L10.7922 12.7662C11.1271 12.083 11.2139 11.6483 11.2134 10.6568C11.2127 9.25641 11.0984 9.12435 9.84538 9.07685C8.48588 9.02522 7.44806 9.3461 6.78819 10.022L6.46031 10.3578L6.2565 10.1151C5.95975 9.7616 5.47575 9.45822 4.90625 9.26866C4.44856 9.11629 4.319 9.10191 3.375 9.09829C1.80556 9.09229 1.74094 9.15629 1.74281 10.715C1.74381 11.5568 1.86994 12.1843 2.155 12.7662L2.36169 13.1881H1.43381C0.8475 13.1881 0.445563 13.2156 0.342 13.2628C0.0246875 13.4073 0 13.5489 0 15.2225V16.7631L0.2125 16.9756C0.413688 17.1768 0.44825 17.1881 0.862813 17.1881H1.30062L1.32781 19.4225C1.35856 21.9505 1.39344 22.1873 1.87706 23.1568C2.43294 24.2711 3.55931 25.2773 4.63581 25.6213L4.86537 25.6946L4.66706 26.1132C4.48763 26.492 4.46875 26.5883 4.46875 27.1256C4.46875 27.6592 4.48825 27.7605 4.66138 28.1258C4.90831 28.6469 5.35425 29.0927 5.87481 29.3388C6.23937 29.5112 6.34237 29.531 6.875 29.5314C7.41288 29.5318 7.50819 29.5132 7.88756 29.3335C9.13044 28.7447 9.61463 27.4117 9.086 26.0342C9.05294 25.9481 9.77194 25.9381 15.9933 25.9381C19.8126 25.9381 22.9371 25.9452 22.9367 25.9537C22.9363 25.9623 22.88 26.1477 22.8117 26.3655C22.6517 26.876 22.6534 27.4033 22.8167 27.888C23.0538 28.592 23.4516 29.026 24.1665 29.361C24.484 29.5097 24.6082 29.5318 25.125 29.5314C25.6618 29.531 25.7591 29.5118 26.1391 29.3323C26.6644 29.084 27.0835 28.6623 27.3383 28.1256C27.5118 27.7602 27.5312 27.6596 27.5312 27.1256C27.5312 26.5892 27.5123 26.4917 27.3343 26.1161L27.1373 25.7003L27.4916 25.5712C28.9051 25.0558 30.0805 23.7235 30.5105 22.1492C30.6334 21.6991 30.6473 21.465 30.6722 19.4225L30.6994 17.1881H31.1372C31.5518 17.1881 31.5863 17.1768 31.7875 16.9756L32 16.7631V15.2225C32 13.6345 31.9651 13.385 31.7298 13.2947C31.6818 13.2763 31.6084 13.1253 31.5666 12.959C31.4526 12.5048 31.1652 12.0513 30.7449 11.6622C30.5375 11.4702 30.3454 11.3131 30.3179 11.3131C30.2904 11.3131 30.2526 11.091 30.234 10.8194C30.1889 10.1618 29.9681 9.66935 29.5345 9.25922C29.3558 9.09022 29.0991 8.89579 28.9642 8.82722C28.6075 8.64604 28.0533 8.54741 27.6646 8.59604C27.3485 8.63547 27.3134 8.62547 27.042 8.41829C26.4291 7.95047 25.3886 7.7581 24.6265 7.97179ZM25.9964 9.25435C26.1492 9.3236 26.4217 9.51985 26.6021 9.69047C26.9678 10.0363 27.0664 10.0575 27.5961 9.90347C28.0201 9.78022 28.374 9.8621 28.6619 10.15C28.9678 10.4558 29.0473 10.7981 28.9216 11.2673C28.8361 11.5863 28.8327 11.6779 28.9002 11.8395C28.9981 12.0737 29.0853 12.1471 29.3966 12.2573C29.6893 12.3611 30.0949 12.6987 30.222 12.9443L30.3157 13.1256L24.5173 13.1253C18.8321 13.1252 18.7148 13.1227 18.5141 13.0003C18.1474 12.7767 18.0778 12.3128 18.3631 11.9935C18.5098 11.8293 18.5946 11.7925 18.8787 11.7692C19.3891 11.7275 19.5419 11.6436 19.8145 11.255C20.4019 10.4175 21.413 9.97554 22.3836 10.1318C22.5946 10.1658 22.8652 10.2345 22.9849 10.2846C23.4872 10.4945 23.6799 10.4063 24.1469 9.75329C24.5553 9.1821 25.3592 8.96522 25.9964 9.25435ZM4.31644 10.412C5.24625 10.6235 5.69088 11.1804 5.82137 12.2968C5.8585 12.6145 5.87112 12.945 5.8495 13.0312C5.81269 13.1779 5.78475 13.188 5.42069 13.187C4.93756 13.1857 4.27944 13.05 3.95644 12.8853C3.32962 12.5655 3.06244 12.0263 3.01475 10.985L2.98394 10.3131H3.43275C3.67962 10.3131 4.07725 10.3576 4.31644 10.412ZM9.98019 10.8912C9.87231 12.5039 9.30006 13.0852 7.73438 13.1723L7.125 13.2063V12.6906C7.125 12.1782 7.24563 11.5612 7.40681 11.2496C7.71187 10.6595 8.45288 10.329 9.49381 10.3184L10.0189 10.3131L9.98019 10.8912ZM17.625 15.1881V15.9381H15.001H12.377L12.176 16.1177C12.0223 16.255 11.975 16.3486 11.975 16.5158C11.975 16.7811 12.1386 17.0476 12.3511 17.1284C12.4416 17.1628 13.5919 17.1881 15.0666 17.1881H17.625V19.1142C17.625 21.2703 17.6521 21.46 18.0306 21.9558C18.1852 22.1583 18.3733 22.3035 18.6704 22.4497L19.0911 22.6568H21.9362C24.6971 22.6568 24.7897 22.653 25.0657 22.5252C25.4929 22.3275 25.8118 22.0133 26.0098 21.5949L26.1874 21.2193L26.1874 19.2037L26.1875 17.1881H27.8125H29.4375L29.4353 19.1412C29.4329 21.3115 29.3827 21.776 29.0796 22.4381C28.5706 23.5497 27.5842 24.3437 26.4007 24.5944C25.7525 24.7317 6.2475 24.7317 5.59925 24.5944C4.45331 24.3517 3.43575 23.5504 2.95312 22.5107C2.62094 21.795 2.60706 21.6781 2.57894 19.36L2.55263 17.1881H4.84506H7.1375L7.35 16.9756C7.58381 16.7418 7.61856 16.5403 7.47344 16.2597C7.309 15.9417 7.2715 15.9381 4.15331 15.9381H1.25V15.1881V14.4381H9.4375H17.625V15.1881ZM24.9375 17.7415V21.0448L24.7888 21.2052C24.6924 21.3093 24.5443 21.3797 24.3669 21.4057C24.2167 21.4277 23.0016 21.4369 21.6667 21.4263L19.2396 21.4068L19.0573 21.2027L18.875 20.9986V17.7183V14.4381H21.9062H24.9375V17.7415ZM30.75 15.1881V15.9381H28.4688H26.1875V15.1881V14.4381H28.4688H30.75V15.1881ZM9.36125 16.1197C8.83169 16.5928 9.42031 17.4264 10.0531 17.0992C10.4322 16.9032 10.4998 16.4283 10.1923 16.1208C9.94319 15.8717 9.63925 15.8713 9.36125 16.1197ZM7.54925 26.1407C8.433 26.7255 8.08937 28.1784 7.03931 28.2967C6.14619 28.3974 5.44731 27.509 5.78456 26.7017C5.90412 26.4155 6.15769 26.1387 6.40625 26.0232C6.69944 25.887 7.25169 25.9437 7.54925 26.1407ZM25.5428 26.0046C25.9443 26.1563 26.3097 26.6904 26.3097 27.1256C26.3097 27.4216 26.1221 27.8143 25.8855 28.0134C25.3237 28.4861 24.5394 28.3739 24.1194 27.7608C23.8957 27.4343 23.9034 26.8089 24.1355 26.4582C24.422 26.0253 25.0564 25.8208 25.5428 26.0046Z" fill="#205640"/>
</svg>
