<svg width="32" height="30" viewBox="0 0 32 30" fill="none" xmlns="http://www.w3.org/2000/svg">
<path fill-rule="evenodd" clip-rule="evenodd" d="M6.76083 0.0519415C6.1745 0.156715 5.30057 0.481177 4.7829 0.786235C4.09617 1.19094 3.17035 2.11062 2.78963 2.76624C2.43274 3.38086 2.16042 4.12204 2.05809 4.75732C1.95819 5.3772 2.01077 6.64813 2.15629 7.13395L2.26338 7.49133L1.9657 7.82242C0.0263225 9.97937 -0.541485 13.1809 0.547188 15.8206C0.68576 16.1566 0.755609 16.2473 0.948759 16.342C1.14554 16.4383 1.21733 16.445 1.40184 16.3841C1.86863 16.2301 1.90856 15.9413 1.59374 14.9965C1.19592 13.8026 1.15017 12.5804 1.45786 11.3674C1.73869 10.2603 2.23108 9.38765 3.12341 8.41558C3.43974 8.07097 3.624 7.81836 3.6235 7.73004C3.62306 7.65312 3.54889 7.36484 3.45864 7.08944C3.33596 6.71516 3.28683 6.41248 3.26405 5.89074C3.22512 5.00185 3.3436 4.44012 3.73459 3.65882C4.24469 2.63962 5.23141 1.80468 6.34205 1.45243C7.56366 1.06501 8.91602 1.23343 10.0397 1.91284C10.4426 2.15637 11.2867 2.96546 11.3517 3.17031C11.3767 3.24899 11.3177 3.4402 11.1916 3.68999C11.0818 3.9073 10.9246 4.28233 10.8424 4.5233C10.5415 5.40493 10.5091 5.81107 10.5091 8.71V11.4094L9.41379 12.5034L8.31848 13.5974V10.8535V8.10965L8.10568 7.89684C7.87154 7.6627 7.66981 7.6279 7.38873 7.77323C7.0888 7.92833 7.06671 8.06508 7.06671 9.76694V11.3432L6.42517 10.706C5.7151 10.0007 5.53459 9.89612 5.21151 10.0028C4.93937 10.0926 4.8135 10.2793 4.8135 10.5934C4.8135 10.8376 4.85149 10.884 5.9401 11.9714L7.06671 13.0967V16.2329V19.3692L6.70682 19.3148C6.50891 19.2849 6.08594 19.1874 5.76698 19.0981C5.26471 18.9574 5.16175 18.9462 4.99783 19.0141C4.74716 19.1179 4.62574 19.3031 4.62574 19.5815C4.62574 19.9376 4.80925 20.1127 5.3671 20.2889C5.79509 20.4241 6.0455 20.4782 6.86329 20.6123L7.06671 20.6457V22.5278C7.06671 24.2916 7.05982 24.4078 6.95717 24.3755C6.1474 24.1213 5.3164 24.0709 4.68882 24.2379C3.46884 24.5625 2.46679 25.5766 2.1546 26.8025C1.90143 27.7964 2.18326 29.2576 2.66651 29.4568C2.7977 29.5109 6.16192 29.525 16.0067 29.5127L29.1714 29.4963L29.3225 29.3207C29.5273 29.0826 29.5274 28.7209 29.3226 28.4827L29.1716 28.3071L27.6014 28.2884L26.0312 28.2697V25.3311V22.3924L26.2346 22.392C26.5404 22.3913 27.3805 22.1746 27.9021 21.9618C28.707 21.6334 29.3281 21.2165 30.0116 20.5461C30.9566 19.619 31.5086 18.6838 31.8359 17.4554C31.9752 16.9327 31.9968 16.7213 31.9998 15.8519C32.0026 15.0282 31.9795 14.7561 31.8693 14.3185C31.607 13.2763 31.0706 12.2197 30.4508 11.5242L30.1441 11.1801L30.2561 10.585C30.7735 7.83619 28.9747 5.24964 26.2107 4.7679C25.3988 4.62638 24.6183 4.69692 23.6647 4.9981C23.6103 5.01525 23.5346 4.87617 23.4402 4.58589C23.0424 3.36227 22.2574 2.23717 21.2321 1.42101C18.645 -0.638415 14.884 -0.438568 12.4934 1.88536L12.1932 2.17715L11.8459 1.80193C11.1444 1.04429 10.1165 0.432858 9.10085 0.169233C8.52403 0.0195204 7.2889 -0.0423801 6.76083 0.0519415ZM18.5096 1.42308C20.4842 1.98425 21.92 3.48307 22.3788 5.46213C22.4867 5.92786 22.4948 6.31472 22.4942 11.0013C22.4935 16.0386 22.4934 16.0398 22.3524 16.5404C21.8371 18.3684 20.5118 19.7796 18.8021 20.3204C18.4923 20.4184 18.1332 20.5145 18.0041 20.5341L17.7694 20.5695V19.4646V18.3597L18.9273 17.1959L20.0852 16.0322V15.7442C20.0852 15.4995 20.0563 15.4319 19.8926 15.2942C19.7582 15.181 19.6271 15.1321 19.4583 15.1321C19.2356 15.1321 19.1596 15.1868 18.4953 15.8255L17.774 16.5188L17.7561 14.2869L17.7381 12.0549L17.5337 11.8723C17.2544 11.6228 16.9503 11.623 16.7006 11.8727L16.5176 12.0556V13.3522V14.6487L15.9871 14.1393C15.4993 13.671 15.4359 13.63 15.2 13.63C14.7094 13.63 14.4318 14.1126 14.6669 14.5563C14.7163 14.6493 15.1528 15.1192 15.6371 15.6007L16.5176 16.4761V18.5317V20.5873L16.3142 20.5466C15.6614 20.416 15.2983 20.2967 14.7826 20.0435C13.6599 19.4921 12.829 18.6586 12.2923 17.5452C11.7683 16.4585 11.8002 16.8491 11.7751 11.2203C11.7589 7.59867 11.773 6.08333 11.8261 5.74378C12.1696 3.54703 13.9209 1.76738 16.1734 1.32594C16.7806 1.20696 17.9151 1.25415 18.5096 1.42308ZM26.125 6.02537C27.4231 6.29701 28.5082 7.26225 28.9165 8.50846C29.1232 9.13955 29.1256 10.221 28.9214 10.78C28.6968 11.3951 28.7211 11.4968 29.2214 12.0364C29.944 12.8156 30.2868 13.4031 30.5789 14.3625C30.7276 14.8511 30.7465 15.0153 30.7465 15.8206C30.7465 16.6296 30.728 16.789 30.5761 17.2884C30.1354 18.7371 29.2159 19.8736 27.9312 20.5576C27.4458 20.8161 26.4712 21.1407 26.1806 21.1407H26.0312V20.0631V18.9857L27.1536 17.8569C27.7709 17.2361 28.3076 16.6448 28.3463 16.5428C28.4804 16.1889 28.2526 15.7929 27.8741 15.722C27.5862 15.668 27.4607 15.7514 26.704 16.4992L26.0312 17.1641V14.9287V12.6932L25.8498 12.4902C25.6997 12.3222 25.6231 12.2871 25.4053 12.2871C25.1875 12.2871 25.1109 12.3222 24.9608 12.4902L24.7794 12.6932V13.9809V15.2686L24.2792 14.7779L23.779 14.2872L23.7785 10.304L23.778 6.32066L24.044 6.21351C24.7214 5.94062 25.4187 5.8776 26.125 6.02537ZM10.5254 14.8035C10.5522 16.2343 10.5668 16.3966 10.7175 16.9284C10.8071 17.2451 10.9641 17.6885 11.0662 17.9136L11.2518 18.323L10.8961 18.5302C10.2373 18.9138 9.42744 19.2002 8.67837 19.3143L8.31848 19.3692V17.3609V15.3525L9.36616 14.3035C9.94235 13.7265 10.4324 13.2545 10.4551 13.2545C10.4779 13.2545 10.5095 13.9515 10.5254 14.8035ZM24.7794 19.098V21.1577L24.5101 21.1208C23.8031 21.0239 22.6318 20.503 22.0526 20.0278L21.8786 19.8851L22.0161 19.7149C22.9697 18.5345 23.434 17.6007 23.6523 16.4248L23.7318 15.9962L24.2556 16.5173L24.7794 17.0383V19.098ZM2.57363 17.5422C2.18577 17.7107 2.1059 18.2283 2.41935 18.5417C2.77561 18.898 3.43654 18.6295 3.43654 18.1286C3.43654 17.8206 3.29829 17.6026 3.04755 17.5152C2.81235 17.4332 2.8263 17.4324 2.57363 17.5422ZM12.3118 19.7747C13.2386 20.779 14.6801 21.5441 16.0823 21.7756L16.5176 21.8475V23.0655C16.5176 24.2011 16.5103 24.2804 16.4081 24.2381C16.1893 24.1475 15.0713 24.1265 14.7146 24.2064C14.3723 24.2829 14.3603 24.2811 14.2709 24.1368C14.2204 24.0552 13.9659 23.7764 13.7054 23.5172C12.9011 22.7169 12.0598 22.374 10.9159 22.3802C10.0301 22.3851 9.31359 22.6172 8.61578 23.1254L8.31848 23.3419V21.9921C8.31848 20.6423 8.31848 20.6423 8.45931 20.6144C8.53679 20.5991 8.81 20.5551 9.06642 20.5167C9.73493 20.4166 10.5744 20.1213 11.2937 19.7334C11.6367 19.5483 11.9259 19.3949 11.9363 19.3926C11.9467 19.3901 12.1157 19.5621 12.3118 19.7747ZM21.2403 20.9792C21.6826 21.3395 22.3204 21.7154 22.8804 21.9459C23.4068 22.1626 24.2778 22.3924 24.5722 22.3924H24.7794V25.3341V28.2758L21.8846 28.2758H18.9899L18.9882 27.6342C18.9858 26.696 18.7411 26.0452 18.1121 25.3037L17.7694 24.8998V23.3709V21.842L18.1919 21.7697C19.0367 21.625 19.8449 21.3268 20.5546 20.8979C20.7267 20.7939 20.875 20.7074 20.8841 20.7057C20.8932 20.704 21.0535 20.827 21.2403 20.9792ZM11.8861 23.7873C12.5526 24.0307 13.0529 24.4822 13.385 25.14C13.6958 25.7557 13.9231 25.8298 14.6321 25.5461C14.99 25.403 15.1074 25.386 15.5758 25.4095C16.2294 25.4424 16.576 25.5842 17.0254 26.0025C17.566 26.5057 17.8473 27.288 17.7414 27.9938L17.6991 28.2758H10.5378H3.37633L3.3359 28.1148C3.2499 27.772 3.34811 27.0468 3.53131 26.6724C3.91441 25.8894 4.59594 25.4475 5.48258 25.4074C6.13645 25.3778 6.50497 25.4955 7.0381 25.9041C7.67144 26.3895 8.08691 26.3198 8.28982 25.694C8.57178 24.8245 9.0688 24.2255 9.78932 23.8866C10.4627 23.5699 11.1956 23.5352 11.8861 23.7873Z" fill="#205640"/>
</svg>
