<svg width="32" height="32" viewBox="0 0 32 32" fill="none" xmlns="http://www.w3.org/2000/svg">
<path fill-rule="evenodd" clip-rule="evenodd" d="M14.7888 0.0175344C14.6684 0.0315455 14.3025 0.0735163 13.9757 0.110858C10.5521 0.501793 7.18938 2.15091 4.66194 4.67835C2.13438 7.20591 0.583962 10.3581 0.0808765 13.9921C-0.0269588 14.7711 -0.0269588 17.2163 0.0808765 17.9953C0.584713 21.6348 2.12856 24.7714 4.66407 27.3069C8.42761 31.0704 13.6894 32.6973 18.9484 31.7233C25.377 30.5327 30.5204 25.3926 31.7056 18.9741C32.4768 14.7982 31.6138 10.5553 29.2899 7.09651C26.7412 3.3032 22.771 0.806784 18.2168 0.133814C17.6038 0.0432423 15.2539 -0.0364459 14.7888 0.0175344ZM18.0973 1.38643C23.9694 2.23629 28.8077 6.58542 30.267 12.3256C30.6074 13.6645 30.7026 14.4664 30.7026 15.9937C30.7026 17.521 30.6074 18.3229 30.267 19.6618C28.9465 24.8561 24.8146 28.986 19.6364 30.2874C18.293 30.625 17.4961 30.719 15.9773 30.719C14.4595 30.719 13.6715 30.6254 12.3151 30.2841C7.13615 28.9812 3.00776 24.8548 1.68759 19.6618C1.34557 18.3164 1.25068 17.5195 1.25068 15.9937C1.25068 14.4679 1.34557 13.671 1.68759 12.3256C2.58211 8.80693 4.76834 5.73093 7.81456 3.70495C9.83204 2.36314 12.0293 1.57696 14.5386 1.29911C15.2889 1.21605 17.2528 1.26421 18.0973 1.38643ZM14.2884 3.45282C13.2138 3.59975 11.8767 3.96948 10.9991 4.36229C10.3276 4.6629 10.1665 5.06634 10.5605 5.46034C10.8201 5.71999 10.9726 5.72787 11.4912 5.50832C12.8458 4.9348 14.026 4.67885 15.547 4.62862C16.7225 4.58978 17.4549 4.65027 18.448 4.86819C22.6105 5.78154 25.9736 9.04462 27.0221 13.1871C27.4754 14.9777 27.4754 17.0097 27.0221 18.8003C26.0039 22.8233 22.8064 26.0208 18.7839 27.0386C16.5636 27.6004 14.0375 27.4586 11.9577 26.6554C7.92227 25.0969 5.18229 21.5819 4.652 17.2835C4.53578 16.3411 4.60884 14.6508 4.80674 13.7063C5.09685 12.3216 5.64685 10.9768 6.40213 9.80572C6.85136 9.10923 6.8867 8.89507 6.59966 8.60803C6.41839 8.42676 6.12854 8.36802 5.88209 8.4626C5.67262 8.54297 4.87386 9.83356 4.44396 10.7861C2.88935 14.2311 2.97342 18.2536 4.67114 21.6544C5.26692 22.8479 5.91418 23.7513 6.90553 24.7727C8.01885 25.9199 9.03159 26.6586 10.4416 27.3519C12.2015 28.2172 13.9891 28.6287 15.9881 28.6287C20.7596 28.6287 25.0795 25.9742 27.2521 21.7072C29.0774 18.1222 29.0774 13.8651 27.2521 10.2802C26.6185 9.0358 25.961 8.1304 24.9351 7.08963C22.9714 5.09756 20.395 3.81567 17.6251 3.45257C16.7626 3.33948 15.1164 3.3396 14.2884 3.45282ZM15.7507 5.6378C15.4122 5.7851 15.3518 5.93897 15.3518 6.65348C15.3518 7.36529 15.4164 7.57758 15.6736 7.71056C15.9974 7.87801 16.3893 7.76192 16.528 7.45743C16.5704 7.36441 16.6028 7.01639 16.6028 6.65348C16.6028 5.93216 16.542 5.78216 16.19 5.63511C15.9449 5.53271 15.9929 5.5324 15.7507 5.6378ZM8.12031 6.10723C7.93259 6.18648 7.72074 6.4764 7.72074 6.6541C7.72074 6.85489 7.88049 7.15487 8.03005 7.23487C8.43299 7.45055 8.97173 7.15075 8.97173 6.7109C8.97173 6.29657 8.48666 5.95267 8.12031 6.10723ZM18.8938 7.12729C18.6948 7.30743 12.5537 14.289 12.428 14.4779C12.3498 14.5955 12.3087 15.3913 12.1873 19.1378C11.9963 25.0341 11.9938 24.5923 12.2195 24.818C12.4547 25.0532 12.8269 25.0719 13.0608 24.8601C13.2589 24.6807 19.4006 17.6988 19.5258 17.5106C19.603 17.3947 19.6451 16.5796 19.7664 12.8507C19.9583 6.95328 19.9607 7.39506 19.7351 7.16939C19.4998 6.93414 19.1276 6.9155 18.8938 7.12729ZM18.5108 12.8558C18.4518 14.702 18.3933 16.2234 18.3807 16.2368C18.3561 16.2629 14.1629 14.6226 14.0841 14.5559C14.0577 14.5337 15.0569 13.3563 16.3046 11.9398C17.5523 10.5232 18.5833 9.39452 18.5957 9.43161C18.6081 9.46864 18.57 11.0096 18.5108 12.8558ZM5.85157 15.4702C5.77145 15.5263 5.6663 15.6671 5.61789 15.783C5.5422 15.9642 5.5422 16.0232 5.61789 16.2044C5.76582 16.5585 5.91487 16.6192 6.63707 16.6192C7.34888 16.6192 7.56117 16.5546 7.69416 16.2974C7.8616 15.9735 7.74551 15.5817 7.44102 15.4429C7.18244 15.3251 6.03053 15.3449 5.85157 15.4702ZM24.4909 15.4555C24.1949 15.6195 24.0963 15.9799 24.2604 16.2974C24.3934 16.5546 24.6057 16.6192 25.3175 16.6192C26.0397 16.6192 26.1887 16.5585 26.3367 16.2044C26.4124 16.0232 26.4124 15.9642 26.3367 15.783C26.1875 15.4259 26.0416 15.3679 25.2988 15.3704C24.8731 15.3718 24.5875 15.4019 24.4909 15.4555ZM15.7684 16.5813C16.9325 17.0421 17.8832 17.4408 17.881 17.4672C17.8788 17.4936 16.8655 18.6653 15.6292 20.0709C13.4234 22.579 13.3811 22.6224 13.362 22.4061C13.3514 22.2848 13.3865 20.8695 13.4402 19.261C13.4939 17.6526 13.5378 16.203 13.5378 16.04C13.5378 15.8769 13.5635 15.7435 13.5948 15.7435C13.6262 15.7435 14.6043 16.1205 15.7684 16.5813ZM15.6714 24.275C15.4145 24.4174 15.3564 24.6079 15.354 25.3153C15.3515 26.058 15.4095 26.2039 15.7665 26.3531C15.9478 26.4288 16.0068 26.4288 16.188 26.3531C16.5421 26.2051 16.6028 26.0561 16.6028 25.3339C16.6028 24.971 16.5704 24.623 16.528 24.5299C16.3911 24.2293 15.9764 24.1059 15.6714 24.275Z" fill="#205640"/>
</svg>
