<svg width="32" height="32" viewBox="0 0 32 32" fill="none" xmlns="http://www.w3.org/2000/svg">
<path fill-rule="evenodd" clip-rule="evenodd" d="M0.317237 0.0933031C-0.016946 0.278516 0.00255007 -0.696538 0.000113058 15.9843C-0.0015741 27.8799 0.0152975 31.5321 0.0725986 31.6577C0.239253 32.0236 -0.875587 31.9997 15.9947 31.9997C32.865 31.9997 31.7502 32.0236 31.9169 31.6577C32.0343 31.4 32.0215 27.2398 31.9025 27.0097C31.6874 26.5939 31.0459 26.5939 30.8308 27.0097C30.7598 27.147 30.7418 27.5441 30.7418 28.9659V30.7499H15.9947H1.24768V16.0029V1.25582H15.9947H30.7418V11.5381C30.7418 22.7197 30.7212 22.0743 31.0837 22.2394C31.2909 22.3339 31.4424 22.3339 31.6496 22.2394C32.0125 22.0741 31.9915 22.7535 31.9915 11.1601C31.9915 -0.433341 32.0125 0.246085 31.6496 0.0807431C31.3959 -0.0348588 0.526133 -0.0224863 0.317237 0.0933031ZM2.81674 2.5928C2.49411 2.77158 2.50199 2.64942 2.49961 7.48601C2.49799 10.855 2.51636 12.0393 2.5721 12.1616C2.69676 12.4353 2.9184 12.5036 3.68156 12.5036H4.37205V16.0029V19.5022H3.68763C3.29008 19.5022 2.93453 19.5335 2.83936 19.5768C2.48868 19.7366 2.49743 19.6111 2.49743 24.4951C2.49743 27.8504 2.51642 29.0361 2.5721 29.1582C2.73163 29.5084 2.61684 29.5002 7.37145 29.5002C12.1261 29.5002 12.0113 29.5084 12.1708 29.1582C12.2142 29.0631 12.2455 28.7075 12.2455 28.31V27.6256H15.9947H19.744V28.31C19.744 28.7075 19.7753 29.0631 19.8187 29.1582C19.9782 29.5084 19.8634 29.5002 24.618 29.5002C29.3726 29.5002 29.2578 29.5084 29.4174 29.1582C29.473 29.0361 29.492 27.8504 29.492 24.4951C29.492 19.6111 29.5008 19.7366 29.1501 19.5768C29.0549 19.5335 28.6994 19.5022 28.3018 19.5022H27.6174V16.0029V12.5036H28.3018C28.6994 12.5036 29.0549 12.4723 29.1501 12.4289C29.5008 12.2691 29.492 12.3952 29.492 7.50457C29.492 2.61399 29.5008 2.74002 29.1501 2.58024C29.0281 2.52463 27.8703 2.50557 24.6119 2.50557C19.8639 2.50557 19.9781 2.49745 19.8187 2.8475C19.7753 2.94267 19.744 3.29823 19.744 3.69577V4.3802H15.9947H12.2455V3.68971C12.2455 2.92655 12.1772 2.70491 11.9035 2.58024C11.6529 2.46602 3.02395 2.47795 2.81674 2.5928ZM6.74658 5.6895C6.74658 7.77258 6.76151 7.88187 7.06808 8.0404C7.39157 8.20768 7.78306 8.09171 7.92166 7.78752C7.97439 7.67173 7.99633 7.05597 7.99633 5.6895V3.75532H9.49603H10.9957V5.07068C10.9957 6.50159 11.0277 6.6638 11.3377 6.80502C11.5449 6.89944 11.6963 6.89944 11.9035 6.80502C12.1363 6.69905 12.2455 6.44441 12.2455 6.008V5.62995H13.8077H15.3699V10.4727V15.3155H12.9358C10.3191 15.3155 10.247 15.3236 10.085 15.637C9.9177 15.9605 10.0337 16.352 10.3379 16.4906C10.5733 16.5979 19.5415 16.5979 19.777 16.4906C20.0812 16.352 20.1971 15.9605 20.0299 15.637C19.876 15.3394 19.7336 15.3155 18.1164 15.3155H16.6196V10.4727V5.62995H18.1818H19.744V6.87676C19.744 8.22855 19.7752 8.39021 20.0655 8.5403C20.2834 8.65303 20.4543 8.65303 20.6722 8.5403C20.9825 8.37984 20.9937 8.28917 20.9937 5.93945V3.75532H24.618H28.2423V7.50457V11.2538H25.0523C21.5917 11.2538 21.5994 11.2531 21.4433 11.5958C21.3489 11.803 21.3489 11.9544 21.4433 12.1616C21.5946 12.4938 21.6715 12.5036 24.115 12.5036H26.3677V13.9095V15.3155H24.121C21.7046 15.3155 21.6186 15.3259 21.4577 15.637C21.345 15.855 21.345 16.0258 21.4577 16.2438C21.6186 16.5549 21.7046 16.5653 24.121 16.5653H26.3677V18.0337V19.5022H25.4958C24.5405 19.5022 24.3487 19.55 24.2072 19.8237C24.0985 20.0338 24.0945 20.1945 24.1928 20.41C24.3404 20.7341 24.4569 20.7519 26.427 20.7519H28.2423V22.3141V23.8763H26.4331C24.4832 23.8763 24.3646 23.8934 24.2072 24.1978C24.0985 24.4079 24.0945 24.5687 24.1928 24.7841C24.3404 25.1082 24.4569 25.1261 26.427 25.1261H28.2423V26.6882V28.2504H24.618H20.9937V26.6882V25.1261H21.6782C22.4364 25.1261 22.6445 25.0653 22.7793 24.8046C22.8879 24.5945 22.8919 24.4337 22.7937 24.2182C22.669 23.9446 22.4474 23.8763 21.6842 23.8763H20.9937V22.3141V20.7519H21.6782C22.4364 20.7519 22.6445 20.6912 22.7793 20.4304C22.9452 20.1097 22.8441 19.7449 22.5469 19.5912C22.3225 19.4752 20.3344 19.4636 20.0859 19.5768C19.8123 19.7015 19.744 19.9232 19.744 20.6863V21.3768H15.9947H12.2455V20.6863C12.2455 19.9232 12.1772 19.7015 11.9035 19.5768C11.6731 19.4718 8.06881 19.4718 7.83836 19.5768C7.53417 19.7154 7.41819 20.1069 7.58547 20.4304C7.73938 20.728 7.88173 20.7519 9.49897 20.7519H10.9957V24.5012V28.2504H7.37145H3.74718V24.5012V20.7519H4.37205H4.99693V22.6922C4.99693 24.7974 5.01217 24.9025 5.33886 25.0514C5.54607 25.1458 5.69754 25.1458 5.90475 25.0514C6.17838 24.9267 6.24668 24.7051 6.24668 23.9419V23.2514H7.74344C9.36068 23.2514 9.50303 23.2275 9.65693 22.9299C9.76966 22.712 9.76966 22.5411 9.65693 22.3232C9.50303 22.0256 9.36068 22.0017 7.74344 22.0017H6.24668V20.9988C6.24668 19.8537 6.1995 19.686 5.84113 19.5564L5.6218 19.4771V18.0212V16.5653H6.9311C8.3492 16.5653 8.50598 16.5361 8.65713 16.2438C8.76986 16.0258 8.76986 15.855 8.65713 15.637C8.50598 15.3447 8.3492 15.3155 6.9311 15.3155H5.6218V13.9095V12.5036H7.86842C10.2849 12.5036 10.3709 12.4932 10.5318 12.1821C10.6404 11.972 10.6444 11.8112 10.5461 11.5958C10.39 11.2531 10.3977 11.2538 6.93717 11.2538H3.74718V7.50457V3.75532H5.24688H6.74658V5.6895ZM13.4952 24.5012V26.3758H12.8704H12.2455V24.5012V22.6266H12.8704H13.4952V24.5012ZM17.2445 23.2514V23.8763H15.9947H14.745V23.2514V22.6266H15.9947H17.2445V23.2514ZM19.744 24.5012V26.3758H19.1191H18.4942V24.5012V22.6266H19.1191H19.744V24.5012ZM31.0611 23.9635C30.5194 24.2638 30.746 25.1261 31.3667 25.1261C31.6833 25.1261 31.9915 24.8208 31.9915 24.5072C31.9915 24.0381 31.4731 23.7351 31.0611 23.9635ZM17.2445 25.7509V26.3758H15.9947H14.745V25.7509V25.1261H15.9947H17.2445V25.7509Z" fill="#205640"/>
</svg>
