<svg width="32" height="32" viewBox="0 0 32 32" fill="none" xmlns="http://www.w3.org/2000/svg">
<path fill-rule="evenodd" clip-rule="evenodd" d="M0.375578 0.0409048C0.306722 0.0691984 0.194049 0.154955 0.125193 0.231511C0.000688563 0.369849 0 0.458798 0 16.0118V31.6529L0.17358 31.8264L0.347097 32H15.9934H31.6397L31.8132 31.8264L31.9868 31.6529V16.0066V0.360334L31.8132 0.186817L31.6397 0.0132372L16.0702 0.00134391C7.507 -0.00516611 0.444434 0.0126113 0.375578 0.0409048ZM30.7348 16.0066V30.7481H15.9934H1.25193L1.2359 16.0692C1.22708 7.99584 1.23327 1.35512 1.24961 1.31199C1.2734 1.24945 4.25781 1.23681 16.0071 1.24939L30.7348 1.26517V16.0066ZM2.27995 2.29319C1.97285 2.60035 2.05754 3.0901 2.45278 3.29222C2.62899 3.38236 14.5293 3.39213 14.7654 3.30237C15.2214 3.12897 15.2616 2.37838 14.8255 2.1797C14.717 2.13031 12.9095 2.11022 8.56795 2.11022H2.46292L2.27995 2.29319ZM16.8777 2.24142C16.5816 2.51728 16.5698 2.92184 16.8503 3.18562C16.9914 3.31839 17.0705 3.3326 17.7716 3.35138C18.5185 3.37135 18.5437 3.36765 18.7302 3.21072C18.9615 3.01611 19.0269 2.79427 18.935 2.5159C18.8193 2.16536 18.6639 2.11022 17.7914 2.11022C17.0933 2.11022 17.0049 2.12292 16.8777 2.24142Z" fill="#205640"/>
</svg>
