<svg width="32" height="33" viewBox="0 0 32 33" fill="none" xmlns="http://www.w3.org/2000/svg">
<rect width="32" height="32" fill="white"/>
<path fill-rule="evenodd" clip-rule="evenodd" d="M15.8373 0.66739L15.662 0.818085L15.6431 2.79161L15.6242 4.76513H14.8496C14.4236 4.76513 13.9318 4.79581 13.7568 4.83336C13.3362 4.92357 12.9566 5.22121 12.7256 5.64206L12.5382 5.98343V7.21217C12.5382 8.4266 12.5399 8.44278 12.6896 8.60228L12.8411 8.76366H15.1021C17.2601 8.76366 17.3704 8.75804 17.5203 8.64014C17.6067 8.57217 17.6905 8.44803 17.7065 8.36425C17.749 8.14164 17.5977 7.83488 17.4101 7.76353C17.3156 7.72761 16.4734 7.70155 15.408 7.70155H13.569V7.05485C13.569 6.30013 13.6397 6.04591 13.8851 5.91908C14.1511 5.78151 18.2389 5.78351 18.5054 5.92133C18.8031 6.07528 18.8278 6.28001 18.8058 8.40992L18.7859 10.3366L18.6105 10.4873L18.4352 10.638L16.2052 10.6375C14.085 10.6372 13.9659 10.631 13.7877 10.513C13.5413 10.3498 13.3008 10.3553 13.1039 10.5286C12.7529 10.8375 12.8722 11.2528 13.3875 11.5156L13.6315 11.6402L13.6313 12.3417C13.6312 12.7276 13.6128 13.6126 13.5902 14.3085L13.5492 15.5737H13.2751C12.8648 15.5737 12.6517 15.8134 12.6921 16.2297C12.7127 16.4421 12.922 16.5962 13.2398 16.6328C13.4718 16.6594 13.5367 16.6912 13.5326 16.7763C13.5297 16.8364 13.5227 17.3355 13.517 17.8853L13.5065 18.8849H13.2859C12.7211 18.8849 12.3919 19.2545 12.5887 19.6673C12.6662 19.8298 12.7482 19.8943 12.9449 19.9472C13.0853 19.985 13.2595 19.9972 13.3319 19.9742L13.4636 19.9324L13.419 22.2437L13.3744 24.555L13.5261 24.7313C13.7323 24.9711 14.0865 24.9786 14.2854 24.7473C14.4134 24.5986 14.4263 24.5021 14.4646 23.4072C14.4872 22.7584 14.5059 21.7588 14.506 21.1861C14.5061 20.6133 14.5232 20.1002 14.5441 20.0459C14.5755 19.9642 14.6992 19.947 15.2575 19.947C15.629 19.947 15.9784 19.9296 16.0341 19.9082C16.1961 19.8461 16.3313 19.5251 16.2848 19.3132C16.2137 18.9898 15.9516 18.8854 15.209 18.8852L14.5687 18.8849L14.5691 18.1821C14.5693 17.7955 14.5875 17.2894 14.6094 17.0575L14.6492 16.6358L15.2493 16.6338C15.8722 16.6317 15.9871 16.5933 16.1204 16.3431C16.2375 16.1231 16.2054 15.9512 16.0104 15.7563C15.8336 15.5795 15.8085 15.5737 15.2197 15.5737H14.6116L14.6524 14.5896C14.6748 14.0485 14.6933 13.1769 14.6934 12.6529L14.6936 11.7001H16.1931H17.6925V12.3405C17.6926 13.1737 17.9237 24.1746 17.9743 25.754L18.0133 26.9688L18.8741 28.2218C19.3476 28.9109 19.8516 29.6465 19.994 29.8565C20.2502 30.234 20.5128 30.8463 20.5873 31.2398L20.6258 31.4428H16.1931H11.7603L11.7988 31.2398C11.9261 30.5675 12.1111 30.2426 13.5515 28.1628L14.1141 27.3506L15.2216 27.3193L16.3292 27.2881L16.4798 27.1128C16.6766 26.8837 16.6756 26.6091 16.477 26.4106L16.3237 26.2572L14.9932 26.2592C14.0463 26.2606 13.6339 26.2832 13.5628 26.3373C13.3789 26.4775 11.3833 29.4066 11.1563 29.8696C11.033 30.1211 10.8721 30.578 10.7988 30.8849L10.6655 31.4428H9.4904C8.32601 31.4428 8.31389 31.4442 8.16195 31.5962C7.9091 31.849 7.95952 32.2566 8.26297 32.4135C8.52931 32.5513 23.8568 32.5513 24.1231 32.4135C24.4266 32.2566 24.477 31.849 24.2242 31.5962C24.0722 31.4442 24.0605 31.4428 22.8891 31.4428H21.7073L21.6309 31.0523C21.4693 30.2257 21.2301 29.7659 20.1247 28.1563L19.0649 26.6132L19.0045 24.2329C18.9713 22.9238 18.9436 21.4238 18.943 20.8998L18.942 19.947H19.2273C19.5844 19.947 19.7161 19.8778 19.8157 19.637C19.9786 19.2438 19.6527 18.8849 19.1326 18.8849H18.8796L18.8691 17.8853C18.8634 17.3355 18.8564 16.8364 18.8535 16.7763C18.8495 16.6912 18.9143 16.6594 19.1463 16.6328C19.4641 16.5962 19.6734 16.4421 19.694 16.2297C19.7344 15.8134 19.5213 15.5737 19.111 15.5737H18.8369L18.7959 14.3085C18.7734 13.6126 18.7549 12.7276 18.7548 12.3417L18.7546 11.6402L18.9932 11.5185C19.3018 11.361 19.6538 10.969 19.7623 10.6618C19.8287 10.4738 19.848 9.9203 19.848 8.20137V5.98343L19.6605 5.64206C19.4295 5.22121 19.0499 4.92357 18.6293 4.83336C18.4543 4.79581 17.9611 4.76513 17.5333 4.76513H16.7553V2.92006C16.7553 1.47034 16.7364 1.02963 16.6669 0.863318C16.5124 0.493642 16.1413 0.405986 15.8373 0.66739Z" fill="#205640"/>
</svg>
