<svg width="32" height="32" viewBox="0 0 32 32" fill="none" xmlns="http://www.w3.org/2000/svg">
<path fill-rule="evenodd" clip-rule="evenodd" d="M0.317237 0.0933031C-0.016946 0.278516 0.00255007 -0.696538 0.000113058 15.9843C-0.0015741 27.8799 0.0152975 31.5321 0.0725986 31.6577C0.239253 32.0236 -0.875587 31.9997 15.9947 31.9997C32.865 31.9997 31.7502 32.0236 31.9169 31.6577C31.9741 31.5321 31.9915 27.8787 31.9915 15.9968C31.9915 -0.866879 32.0155 0.247397 31.6496 0.0807431C31.3959 -0.0348588 0.526133 -0.0224863 0.317237 0.0933031ZM9.24539 1.27144C9.24502 1.28 9.20284 1.4251 9.15166 1.59382C8.99913 2.09672 9.027 2.42109 9.24127 2.63536C9.44798 2.842 9.7068 2.87381 9.99024 2.72721C10.1775 2.63036 10.278 2.43109 10.3306 2.05191C10.4214 1.39748 11.1248 1.06323 11.7078 1.39742C12.0407 1.58832 12.198 1.89094 12.1643 2.27587C12.1301 2.66741 11.9768 2.86669 11.5223 3.1102C10.9565 3.41333 10.6208 3.88317 10.6208 4.37182C10.6208 4.50448 10.6125 4.50517 9.01175 4.50623C7.27172 4.50742 6.87155 4.55541 6.22893 4.84004C5.49083 5.16691 5.16114 5.46735 3.83104 7.02561C3.13174 7.84475 2.54261 8.58286 2.52173 8.6659C2.439 8.99565 2.55948 9.15237 4.01662 10.6095C5.52201 12.1149 5.65586 12.2139 6.00604 12.0818L6.18075 12.0158L6.19813 15.0768L6.21543 18.1378L6.41952 18.3201L6.6236 18.5024H11.2769H15.9302L16.1343 18.3201L16.3384 18.1378L16.3558 15.1062L16.3731 12.0746L16.5804 12.1082C16.7067 12.1287 16.8587 12.1045 16.9692 12.0462C17.2653 11.8902 19.9168 9.18405 19.965 8.98865C19.9884 8.89417 19.9902 8.74782 19.969 8.66359C19.9479 8.5793 19.3587 7.84119 18.6597 7.02329C17.3435 5.48304 17.0091 5.17648 16.2834 4.84423C15.6639 4.5606 15.2227 4.50742 13.4796 4.50623C12.1145 4.50536 11.8706 4.49142 11.8706 4.41438C11.8706 4.36445 11.9962 4.26797 12.1497 4.20011C12.5492 4.02333 13.0273 3.55036 13.223 3.13832C13.4757 2.60618 13.497 1.90419 13.2766 1.36517C13.2343 1.26169 13.4473 1.25582 17.2378 1.25582H21.2437V4.78343C21.2437 7.38528 21.2633 8.35403 21.3184 8.47488C21.4 8.65397 21.662 8.81681 21.8686 8.81681C22.0751 8.81681 22.3371 8.65397 22.4188 8.47488C22.4738 8.35403 22.4934 7.38528 22.4934 4.78343V1.25582H26.6176H30.7418V16.0029V30.7499H26.6176H22.4934V22.2173C22.4934 12.9417 22.5121 13.4299 22.1515 13.2656C21.9443 13.1712 21.7928 13.1712 21.5856 13.2656C21.2404 13.4229 21.2437 13.3843 21.2437 17.2183V20.7519H11.2457H1.24768V11.0039V1.25582H5.24688C7.44644 1.25582 9.24577 1.26288 9.24539 1.27144ZM8.46036 5.89552C8.47636 5.97282 8.50598 6.16459 8.52616 6.32156C8.54641 6.47859 8.64451 6.77947 8.74424 6.99024C9.43773 8.45669 11.2762 9.00671 12.6985 8.17319C13.2988 7.82138 13.8817 6.96924 13.9652 6.32156C14.0429 5.71805 14.0072 5.75492 14.5143 5.75492C15.2923 5.75492 15.9524 5.9855 16.4448 6.42935C16.5861 6.55676 17.1086 7.1354 17.6058 7.71522L18.5098 8.76945L17.5922 9.68357L16.6745 10.5977L16.4116 10.3108C15.959 9.81699 15.6228 9.7415 15.3026 10.0617L15.1199 10.2444V13.7485V17.2526H11.2769H7.43394V13.7485V10.2444L7.25129 10.0617C7.11588 9.92634 7.0094 9.8791 6.83968 9.8791C6.6451 9.8791 6.55262 9.93496 6.22262 10.2518L5.83451 10.6245L4.90826 9.6967L3.98201 8.76894L4.88582 7.71497C5.38291 7.13527 5.90525 6.55676 6.04659 6.42935C6.54237 5.9825 7.15712 5.76579 7.94828 5.75905C8.40056 5.75517 8.43324 5.76386 8.46036 5.89552ZM12.7469 6.02049C12.6207 6.83421 11.97 7.35791 11.1499 7.30567C10.4383 7.26037 9.86002 6.75353 9.75391 6.08217L9.70218 5.75492H11.2451H12.7881L12.7469 6.02049ZM21.563 10.4662C21.0213 10.7665 21.2479 11.6287 21.8686 11.6287C22.1852 11.6287 22.4934 11.3235 22.4934 11.0099C22.4934 10.5408 21.975 10.2378 21.563 10.4662ZM24.5624 15.1528C24.3289 15.2822 24.2477 15.4951 24.2453 15.9843C24.2427 16.5061 24.324 16.7267 24.5646 16.8511C24.8881 17.0184 25.2796 16.9024 25.4182 16.5983C25.4592 16.5081 25.4928 16.2402 25.4928 16.0029C25.4928 15.4981 25.4093 15.2776 25.1713 15.1546C24.9591 15.0449 24.7582 15.0443 24.5624 15.1528ZM21.2437 23.8763V25.7509H11.2457H1.24768V23.8763V22.0017H11.2457H21.2437V23.8763ZM10.6277 23.3387C10.332 23.5025 10.2334 23.8626 10.3974 24.1797C10.5204 24.4176 10.7409 24.5012 11.2457 24.5012C11.7505 24.5012 11.9709 24.4176 12.0939 24.1797C12.2598 23.8589 12.1587 23.4942 11.8615 23.3405C11.6422 23.2271 10.8311 23.2259 10.6277 23.3387ZM21.2437 28.8753V30.7499H11.2457H1.24768V28.8753V27.0007H11.2457H21.2437V28.8753ZM10.6277 28.3377C10.332 28.5015 10.2334 28.8616 10.3974 29.1787C10.5204 29.4166 10.7409 29.5002 11.2457 29.5002C11.7505 29.5002 11.9709 29.4166 12.0939 29.1787C12.2598 28.8579 12.1587 28.4932 11.8615 28.3395C11.6422 28.2261 10.8311 28.2249 10.6277 28.3377Z" fill="#205640"/>
</svg>
