<svg width="32" height="29" viewBox="0 0 32 29" fill="none" xmlns="http://www.w3.org/2000/svg">
<path fill-rule="evenodd" clip-rule="evenodd" d="M0.39925 0.0435837C0.326688 0.0736903 0.207125 0.176913 0.133625 0.272881L0 0.447358V14.2352V28.0232L0.157938 28.216C0.433063 28.5518 0.545188 28.5374 1.84419 27.9999C5.52525 26.4766 9.21069 25.5918 13.25 25.2617C14.651 25.1472 17.7776 25.166 19.1798 25.2975C23.1634 25.671 26.6979 26.5493 30.3177 28.0653C31.4393 28.5351 31.5701 28.548 31.8421 28.216L32 28.0232V14.2315V0.439847L31.8421 0.247076C31.5695 -0.0855725 31.4401 -0.0724131 30.3051 0.40345C26.7885 1.87771 23.0912 2.8096 19.4688 3.13467C18.6098 3.21177 18.59 3.21696 18.3906 3.42001C18.1655 3.64924 18.1331 3.85902 18.2783 4.14738C18.4354 4.45929 18.6473 4.50301 19.5817 4.41628C20.9751 4.28693 23.3772 3.90723 24.3594 3.66099L24.5 3.62575V14.2246C24.5 20.0539 24.4898 24.8234 24.4774 24.8234C24.4649 24.8234 24.1204 24.7535 23.7118 24.668C19.3759 23.7617 14.7895 23.6392 10.3082 24.3102C9.52494 24.4275 8.06781 24.6963 7.64062 24.8024L7.5 24.8373V14.2385C7.5 8.40915 7.51019 3.63968 7.52262 3.63968C7.53512 3.63968 7.87962 3.70958 8.28825 3.79502C9.75794 4.10225 12.4426 4.47418 13.1905 4.47418C13.6833 4.47418 13.9561 3.98266 13.7217 3.51713C13.5974 3.27031 13.4109 3.21209 12.4688 3.12587C8.97375 2.80594 5.25069 1.87353 1.85475 0.467707C0.626188 -0.0408943 0.612438 -0.0448742 0.39925 0.0435837ZM1.90669 1.87848C2.75188 2.22262 4.17438 2.7153 5.15625 3.00404C5.6375 3.14558 6.08044 3.27628 6.14062 3.29438C6.24425 3.32564 6.25 3.9021 6.25 14.234V25.1407L5.89062 25.2431C4.79394 25.5556 3.34 26.0368 2.39444 26.4003C1.80356 26.6275 1.30437 26.8133 1.28506 26.8133C1.26575 26.8133 1.25 21.1515 1.25 14.2315C1.25 7.31151 1.27131 1.64969 1.29731 1.64969C1.32331 1.64969 1.59756 1.75266 1.90669 1.87848ZM30.75 14.2315C30.75 21.8184 30.7273 26.8133 30.6927 26.8133C30.6612 26.8133 30.4994 26.7535 30.3333 26.6803C29.7326 26.4156 28.0694 25.8318 26.9473 25.4917C26.3167 25.3007 25.7894 25.1443 25.7754 25.1443C25.7614 25.1443 25.75 20.2356 25.75 14.2361V3.32783L26.1094 3.22345C27.6864 2.76562 29.6054 2.10976 30.3125 1.78713C30.4672 1.71652 30.6289 1.65669 30.6719 1.65425C30.7341 1.65059 30.75 4.20644 30.75 14.2315ZM15.6479 3.43246C15.1713 3.82911 15.4067 4.56759 16.0099 4.56759C16.341 4.56759 16.625 4.26979 16.625 3.92257C16.625 3.44126 16.0089 3.13217 15.6479 3.43246Z" fill="#205640"/>
</svg>
